<?xml version="1.0" standalone="no"?>
<!DOCTYPE svg PUBLIC "-//W3C//DTD SVG 1.1//EN" "http://www.w3.org/Graphics/SVG/1.1/DTD/svg11.dtd" >
<svg xmlns="http://www.w3.org/2000/svg" xmlns:xlink="http://www.w3.org/1999/xlink" version="1.1">
<metadata>
Created by FontForge 20170731 at Mon Feb 14 17:52:48 2022
 By Aleksey,,,
</metadata>
<defs>
<font id="Trap-Medium" horiz-adv-x="512" >
  <font-face 
    font-family="Inktrap Med"
    font-weight="500"
    font-stretch="normal"
    units-per-em="2048"
    panose-1="0 0 0 0 0 0 0 0 0 0"
    ascent="1536"
    descent="-512"
    x-height="1024"
    cap-height="1434"
    bbox="-18 -512 2089 1536"
    underline-thickness="102"
    underline-position="-358"
    unicode-range="U+000D-2022"
  />
<missing-glyph 
 />
    <glyph glyph-name=".notdef" 
 />
    <glyph glyph-name="uni0000" horiz-adv-x="0" 
 />
    <glyph glyph-name="uni0000" horiz-adv-x="0" 
 />
    <glyph glyph-name="uni000D" unicode="&#xd;" 
 />
    <glyph glyph-name="space" unicode=" " 
 />
    <glyph glyph-name="exclam" unicode="!" horiz-adv-x="550" 
d="M186 270l-18 1164h215l-25 -1164h-172zM176 -33v185h195v-185h-195z" />
    <glyph glyph-name="quotedbl" unicode="&#x22;" horiz-adv-x="837" 
d="M197 961l-21 503h195l-21 -503h-153zM485 961l-20 503h194l-20 -503h-154z" />
    <glyph glyph-name="numbersign" unicode="#" horiz-adv-x="1560" 
d="M233 870v164h316l65 371h174l-65 -371h297l63 371h174l-63 -371h192v-164h-221l-47 -260h268v-164h-296l-72 -415h-174l71 415h-294l-74 -415h-174l73 415h-213v164h242l45 260h-287zM688 610h219q8 0 15.5 -4.5t11.5 -9t11 -14t11 -13.5l27 23q-4 5 -11.5 13t-11.5 13
t-7.5 13t-2.5 16l33 187q2 10 9.5 18t20.5 16.5t17 12.5l-22 28q-2 -2 -14.5 -15t-22 -18.5t-19.5 -5.5h-219q-10 0 -18 5t-19 20t-12 16l-27 -22q3 -4 11 -12.5t12 -13.5t6.5 -13t1.5 -16l-33 -187q-1 -8 -6.5 -15.5t-11 -11.5t-15.5 -10.5t-14 -9.5l23 -29q5 4 16.5 15.5
t21 17.5t19.5 6z" />
    <glyph glyph-name="ampersand" unicode="&#x26;" horiz-adv-x="1742" 
d="M1178 109q-83 -73 -182.5 -109.5t-268.5 -36.5q-127 0 -228 27t-165 70t-106 101.5t-59 117t-17 120.5q0 261 436 430q-195 152 -195 304q0 150 100 239.5t279 89.5q167 0 269 -93.5t102 -229.5q0 -48 -12.5 -90.5t-43.5 -88.5t-91.5 -90.5t-147.5 -83.5l391 -395
q62 70 88.5 121.5t30.5 118.5h160q0 -99 -46.5 -192.5t-117.5 -153.5l278 -285h-215l-104 104q-47 49 -47 164h-35q-4 -117 -53 -159zM571 1141q0 -97 172 -252q117 56 171.5 113.5t54.5 127.5q0 75 -49.5 126t-143.5 51q-96 0 -150.5 -50t-54.5 -116zM1116 283l-420 432
q-193 -80 -274.5 -149t-81.5 -154q0 -37 11 -72.5t39.5 -71.5t71 -63t111 -43.5t154.5 -16.5q247 0 389 138z" />
    <glyph glyph-name="quotesingle" unicode="'" horiz-adv-x="516" 
d="M168 961l-23 503h193l-23 -503h-147z" />
    <glyph glyph-name="parenleft" unicode="(" horiz-adv-x="827" 
d="M502 -324q-126 279 -184 481.5t-58 407.5q-1 206 57 412t185 487h182q-128 -283 -187 -488.5t-59 -410.5q1 -205 60 -406.5t186 -482.5h-182z" />
    <glyph glyph-name="parenright" unicode=")" horiz-adv-x="638" 
d="M262 -324h-170q126 278 176.5 458t53.5 417q3 164 -23.5 311t-73.5 277.5t-135 324.5h170q73 -162 109.5 -250.5t75 -207.5t52.5 -225.5t13 -229.5q-1 -72 -8.5 -141t-14.5 -119t-30 -123.5t-33.5 -108.5t-48 -123.5t-51 -119t-62.5 -140.5z" />
    <glyph glyph-name="asterisk" unicode="*" horiz-adv-x="1128" 
d="M561 940l-168 -209l-112 86l178 236q6 8 16.5 13.5t19 8t22 5.5t20.5 5l-11 35q-6 -2 -20.5 -7t-20.5 -6.5t-20.5 -3.5t-20.5 3l-280 104l51 136l258 -89q9 -4 18 -12t14 -14t13.5 -19.5t11.5 -17.5l29 20q-4 6 -13 17t-14 18t-9.5 18t-4.5 21l-2 248h143l5 -248
q1 -12 -5 -24.5t-18 -28t-16 -21.5l28 -20q3 5 11 17.5t13 19.5t14 14.5t18 11.5l258 89l53 -136l-281 -104q-6 -5 -20.5 -3t-20.5 3.5t-20.5 6.5t-20.5 7l-10 -35q7 -2 20.5 -5t22 -5.5t19 -8t16.5 -13.5l178 -236l-115 -86l-167 209q-5 6 -8 13t-4 16.5t-1.5 16t0 19
t0.5 17.5h-35q0 -5 0.5 -21.5t0 -24t-3.5 -18.5t-9 -18z" />
    <glyph glyph-name="plus" unicode="+" horiz-adv-x="1171" 
d="M221 530v164h273v285h174v-285h284v-164h-284v-288h-174v288h-273z" />
    <glyph glyph-name="comma" unicode="," horiz-adv-x="548" 
d="M229 0h-61v205h215v-205q0 -97 -54 -152t-153 -55v92q77 0 96 66q11 32 60 67l-23 29q-4 -3 -18 -15t-20.5 -16.5t-18.5 -10t-23 -5.5z" />
    <glyph glyph-name="hyphen" unicode="-" horiz-adv-x="733" 
d="M84 506v176h578v-176h-578z" />
    <glyph glyph-name="period" unicode="." horiz-adv-x="501" 
d="M145 0v211h211v-211h-211z" />
    <glyph glyph-name="slash" unicode="/" horiz-adv-x="815" 
d="M72 0l428 1464h190l-428 -1464h-190z" />
    <glyph glyph-name="zero" unicode="0" horiz-adv-x="1226" 
d="M78 717q0 161 35 296.5t102 236.5t172.5 157.5t239.5 56.5q133 0 238 -56.5t172 -157.5t102 -236.5t35 -296.5t-35 -297t-102 -237.5t-172 -158.5t-238 -57q-134 0 -239.5 57t-172.5 158.5t-102 237.5t-35 297zM272 717q0 -115 20.5 -213.5t61.5 -179t111 -126.5t162 -46
q91 0 160.5 46t110.5 126.5t61 179t20 213.5t-20 213t-61 177.5t-110.5 125t-160.5 45.5q-92 0 -162 -45.5t-111 -125t-61.5 -178t-20.5 -212.5z" />
    <glyph glyph-name="one" unicode="1" horiz-adv-x="1214" 
d="M588 1063q-121 -59 -244 -59v184q113 0 191.5 71.5t78.5 174.5h248v-1434h-190v1018q0 60 61 180l-31 16q-3 -5 -14.5 -27t-16.5 -30.5t-16.5 -27t-20 -28t-21 -21t-25.5 -17.5z" />
    <glyph glyph-name="two" unicode="2" horiz-adv-x="1224" 
d="M496 254q-19 -21 -53.5 -41.5t-52 -28t-62.5 -26.5l14 -35q125 57 184 57h561v-180h-940v176q18 19 197.5 207.5t347.5 351.5q92 89 138 174.5t45 149.5t-30.5 113t-83 74.5t-118.5 25.5q-268 0 -268 -279h-203q0 66 14.5 129.5t51.5 126.5t92 110t142.5 76t197.5 29
q86 0 162.5 -32.5t129.5 -86t84.5 -125.5t35.5 -149t-26.5 -159t-94.5 -152q-101 -112 -465 -506z" />
    <glyph glyph-name="three" unicode="3" horiz-adv-x="1267" 
d="M1008 696q151 -112 151 -293q0 -213 -130.5 -323.5t-391.5 -110.5t-397.5 110.5t-141.5 299.5h189q0 -113 95.5 -177.5t262.5 -64.5t245.5 74t78.5 207q0 61 -15.5 101t-48 68t-95.5 43t-146 21t-211 6v174q123 0 203 6t140.5 20.5t92 42t46.5 67t15 98.5
q0 121 -73.5 176t-233.5 55q-157 0 -246.5 -64.5t-89.5 -176.5h-188q3 189 134.5 299t383.5 110q258 0 380 -92.5t122 -300.5q0 -169 -131 -270q-22 -17 -59 -25.5t-58 -9t-68 -0.5l2 -37h22.5h25t23 -0.5t26 -2t23 -4t24 -6t19.5 -8.5t20 -12z" />
    <glyph glyph-name="four" unicode="4" horiz-adv-x="1294" 
d="M111 543l690 891h223v-877h201v-195h-201v-362h-193v360h-720v183zM768 1057l-342 -424q-9 -11 -22.5 -22.5t-24 -19t-30 -18.5t-28 -15.5t-31 -16t-26.5 -13.5l15 -32q120 59 184 59l368 2v477q0 21 6 49t11.5 44t19 52.5t15.5 43.5l-35 12l-11.5 -34.5t-14.5 -40.5
t-14.5 -34.5t-19 -39t-20.5 -29.5z" />
    <glyph glyph-name="five" unicode="5" horiz-adv-x="1267" 
d="M438 850q128 74 299 74q206 0 329.5 -126t123.5 -341t-147.5 -351.5t-387.5 -136.5q-191 0 -350 117t-205 293h226q23 -87 123 -158t217 -71q153 0 242 92.5t89 234.5q0 112 -74 190t-200 78q-97 0 -172.5 -21t-115.5 -47t-77 -65h-225l160 822h819v-179h-649l-74 -372
q-4 -17 -14 -37.5t-16.5 -32t-25 -38t-20.5 -30.5l29 -20q6 9 20 32.5t23 37t24 30t29 25.5z" />
    <glyph glyph-name="six" unicode="6" horiz-adv-x="1290" 
d="M375 772q147 154 362 154q192 0 325.5 -133t133.5 -322q0 -98 -37 -188.5t-102 -160t-163 -111.5t-212 -42q-126 0 -223.5 33.5t-162 93.5t-106 149t-59.5 194t-18 235q0 174 45.5 318t125 240t188 149t233.5 53q88 0 162.5 -23t126 -60t89.5 -87.5t59 -102t29 -106.5
h-200q-22 80 -91 142.5t-153 62.5q-161 0 -271.5 -125t-133.5 -340q-8 -57 -62 -187l33 -14q5 11 20.5 56.5t29.5 74t32 47.5zM346 457q0 -129 86.5 -215t241.5 -86q158 0 242.5 81.5t84.5 219.5q0 291 -305 291q-159 0 -254.5 -82t-95.5 -209z" />
    <glyph glyph-name="seven" unicode="7" horiz-adv-x="1214" 
d="M809 1255h-651v179h1001v-179q-65 -76 -138.5 -171t-167 -234.5t-169 -275.5t-133.5 -291t-72 -283h-219q14 146 79 321.5t157 337t179 290t169 229.5q6 8 13 15t17 14t16.5 12.5t19.5 12.5t18.5 10.5t21.5 11t19 9t20.5 9.5t18.5 8l-17 33q-123 -58 -182 -58z" />
    <glyph glyph-name="eight" unicode="8" horiz-adv-x="1261" 
d="M410 739q21 8 46.5 10t67.5 0.5t49 -1.5v34q-11 0 -39 0.5t-44.5 1t-39 4.5t-38.5 11q-117 53 -170.5 120t-53.5 164q0 164 137.5 272.5t344.5 108.5t345 -108t138 -269q0 -99 -56.5 -169.5t-174.5 -120.5q-16 -7 -39 -10.5t-39 -3.5t-46 0.5t-38 0.5v-36q32 3 83 3
t81 -12q136 -52 197 -133.5t61 -222.5q0 -197 -137 -305.5t-386 -108.5q-246 0 -383 107t-137 299q0 141 66 225.5t205 138.5zM670 881q138 0 218.5 56.5t80.5 154.5t-80 154.5t-219 56.5q-138 0 -216.5 -56.5t-78.5 -156.5q0 -98 78.5 -153.5t216.5 -55.5zM662 133
q160 0 242.5 64t82.5 182q0 119 -83 179t-240 60q-159 0 -244.5 -61t-85.5 -180q0 -117 84 -180.5t244 -63.5z" />
    <glyph glyph-name="nine" unicode="9" horiz-adv-x="1347" 
d="M958 664q-57 -86 -136 -132.5t-206 -46.5q-99 0 -188 29t-159.5 83.5t-112 142t-41.5 196.5q0 97 36.5 186.5t102 159t164 111t213.5 41.5q158 0 270 -50t176 -146t92.5 -220.5t28.5 -288.5q0 -378 -130 -569t-368 -191q-109 0 -199.5 24.5t-150 63t-103.5 91
t-66.5 104.5t-33.5 108h203q32 -88 113.5 -147t216.5 -59q165 0 241 124.5t85 370.5q1 21 6 48.5t10.5 46.5t15.5 51.5t13 44.5l-35 8q-4 -14 -13.5 -57.5t-19.5 -74t-25 -52.5zM950 952q0 127 -83.5 211t-235.5 84q-154 0 -237 -80t-83 -215q0 -132 89 -207t247 -75
q150 0 226.5 77.5t76.5 204.5z" />
    <glyph glyph-name="colon" unicode=":" horiz-adv-x="548" 
d="M133 807v217h219v-217h-219zM133 0v217h219v-217h-219z" />
    <glyph glyph-name="semicolon" unicode=";" horiz-adv-x="548" 
d="M139 793v231h228v-231h-228zM195 0h-52v205h215v-197q0 -18 -2 -28q-5 -88 -59 -146.5t-145 -71.5v93q58 13 86 63q6 12 12 27q17 45 65 80l-22 28q-2 -1 -14.5 -11.5t-16 -13t-15 -10t-18 -10t-16 -5.5t-18.5 -3z" />
    <glyph glyph-name="less" unicode="&#x3c;" horiz-adv-x="1271" 
d="M504 707l620 -240v-201l-995 400l-2 -2v165h2l995 398v-199l-620 -242q-11 -5 -25 -8.5t-26 -5.5t-29.5 -4t-28 -2.5t-30.5 -1t-28 -0.5h-29.5h-26.5v-35h26.5h29.5t28 -0.5t30.5 -1t28 -2.5t29.5 -4t26 -5.5t25 -8.5z" />
    <glyph glyph-name="equal" unicode="=" horiz-adv-x="1175" 
d="M121 856v168h930v-168h-930zM121 440v170h930v-170h-930z" />
    <glyph glyph-name="greater" unicode="&#x3e;" horiz-adv-x="1239" 
d="M748 786l-621 242v199l995 -398h2v-165l-2 2l-995 -400v201l621 240q12 5 26 8.5t26 5.5t29.5 4t28 2.5t30.5 1t27.5 0.5h29h26.5v35h-26.5h-29t-27.5 0.5t-30.5 1t-28 2.5t-29.5 4t-26 5.5t-26 8.5z" />
    <glyph glyph-name="question" unicode="?" horiz-adv-x="1009" 
d="M274 1118h-188q1 34 13.5 74.5t44.5 90t79 89t125 66t174 26.5q172 0 281.5 -94t109.5 -242q0 -70 -22 -127.5t-56.5 -97t-77 -74.5t-84.5 -67t-76.5 -66t-56.5 -80.5t-22 -101.5v-246h-178v244q0 70 21.5 130.5t56 103t76 80t82.5 69.5t75.5 62.5t56 67.5t21.5 77
q0 87 -49.5 142.5t-147.5 55.5q-97 0 -174.5 -55t-83.5 -127zM524 -31h-188v174h188v-174z" />
    <glyph glyph-name="at" unicode="@" horiz-adv-x="2213" 
d="M1468 121v135h-28q0 -12 -9.5 -40.5t-34.5 -70.5t-62 -80t-100 -66t-140 -30q-30 -2 -80 2q-135 15 -242 91t-166 195.5t-59 260.5q0 213 132.5 362t340.5 171q57 4 84 2q202 -6 315 -129q18 -20 30.5 -47.5t25.5 -71t16 -51.5l35 12q-4 11 -20 50t-24 67t-9 53l-5 80
h164v-828q0 -102 26 -139t83 -37q31 0 56 14t41.5 41.5t29.5 57t20.5 73t12 75.5t6 79.5t2 69.5t0.5 60v12q-1 151 -42.5 283.5t-115.5 230.5t-173 168.5t-217 106.5t-245 36q-167 0 -314 -60.5t-253.5 -166.5t-168 -259t-61.5 -331q0 -187 68 -336t183 -241.5t261.5 -141.5
t309.5 -49q127 0 245 26l44 -172q-140 -28 -291 -28q-214 0 -397.5 66t-317 186t-209 299t-74.5 395q0 214 74 398t202.5 312.5t308 201.5t386.5 73q205 0 384.5 -71.5t310 -199t206 -313t76.5 -403.5q0 -320 -91 -485.5t-259 -165.5q-123 0 -197 72.5t-74 195.5zM735 518
q0 -163 92.5 -270t259.5 -107q82 0 149 31.5t109.5 85t67 120t29.5 140.5q0 171 -92 268t-260 97t-261.5 -102.5t-93.5 -262.5z" />
    <glyph glyph-name="A" unicode="A" horiz-adv-x="1320" 
d="M-18 2l538 1436h244l559 -1436h-211l-201 510h-530l-186 -510h-213zM872 672l-204 493q-6 13 -8.5 31t-2.5 31t1 35.5t1 31.5h-36q0 -10 1 -31.5t1 -35t-2 -31.5t-7 -31l-204 -493h460z" />
    <glyph glyph-name="B" unicode="B" horiz-adv-x="1320" 
d="M1016 741q54 -21 96 -47.5t78.5 -66.5t56 -97.5t19.5 -130.5t-14 -130.5t-39 -99.5t-65 -73t-86 -50t-109 -30.5t-127 -15.5t-146 -4q-20 0 -137 1t-185 1v2h-188v1434h504q93 0 164.5 -8t140.5 -31.5t113 -63t71 -105t27 -155.5q0 -114 -38.5 -180t-135.5 -103
q-19 -7 -44.5 -8t-60 1.5t-47.5 2.5v-34q14 -1 47.5 0.5t59.5 -0.5t45 -9zM358 854h289q66 0 110 3t93.5 15.5t78.5 35t48.5 64t19.5 99.5q0 32 -6 58t-14.5 45.5t-26.5 34t-32 24t-43 16t-47.5 10t-56 5.5t-59 2h-65.5h-289v-412zM358 162h312q167 0 228 12q127 26 161 128
q14 44 14 104q0 64 -15 110.5t-50.5 74.5t-67.5 44.5t-94 23t-99 8t-111 1.5h-24q-137 0 -227 2h-27v-508z" />
    <glyph glyph-name="C" unicode="C" horiz-adv-x="1523" 
d="M799 -31q-152 0 -285 57.5t-227 157t-148 238.5t-55 297q1 210 92.5 380.5t253.5 267.5t363 97q269 0 441 -133t202 -348h-199q-34 134 -142 216.5t-302 82.5q-147 0 -266 -75t-185 -204t-66 -284q0 -156 66.5 -285.5t186.5 -205.5t268 -76q199 0 308.5 82.5t143.5 216.5
h199q-32 -222 -205.5 -352t-443.5 -130z" />
    <glyph glyph-name="D" unicode="D" horiz-adv-x="1476" 
d="M674 -2l-346 2h-158v1464h514q195 0 352.5 -89.5t248.5 -253.5t91 -373q0 -157 -55 -296.5t-148.5 -239t-223.5 -157.5t-275 -57zM360 180h299q146 0 268.5 80t190.5 210t68 278q0 146 -65.5 268t-184.5 194t-266 72h-310v-1102z" />
    <glyph glyph-name="E" unicode="E" horiz-adv-x="1212" 
d="M170 0v1434h958v-177h-770v-432h719v-176h-719v-473h781v-176h-969z" />
    <glyph glyph-name="F" unicode="F" horiz-adv-x="1185" 
d="M1128 1249h-768v-454h656v-185h-656v-610h-190v1434h958v-185z" />
    <glyph glyph-name="G" unicode="G" horiz-adv-x="1542" 
d="M1268 0v145q0 28 6.5 62.5t19 82t15.5 62.5l-35 8q-4 -17 -10.5 -65t-16 -81.5t-26.5 -55.5q-26 -35 -61.5 -66t-86.5 -60.5t-121 -47t-149 -17.5q-149 0 -282 57.5t-229 157t-152 239t-56 296.5q0 210 92 381t255.5 268.5t365.5 97.5q225 0 392.5 -106.5t235.5 -298.5
q-12 -4 -31 -10.5t-60 -20t-68 -22t-27 -7.5q-50 132 -168.5 207.5t-279.5 75.5q-149 0 -267.5 -77t-183 -206t-64.5 -282t68.5 -282.5t192.5 -207t276 -77.5q96 0 172.5 28.5t122.5 71t76 97.5t41.5 104t11.5 94h-385v170h592v-715h-176z" />
    <glyph glyph-name="H" unicode="H" horiz-adv-x="1554" 
d="M170 0v1434h190v-615h832v615h192v-1434h-192v643h-832v-643h-190z" />
    <glyph glyph-name="I" unicode="I" horiz-adv-x="530" 
d="M170 0v1434h190v-1434h-190z" />
    <glyph glyph-name="J" unicode="J" horiz-adv-x="1007" 
d="M840 1432v-1061q0 -103 -29.5 -181t-82.5 -125.5t-122.5 -70.5t-154.5 -23q-146 0 -265.5 67t-179.5 189l127 103q53 -96 158 -146t201 -30q155 26 155 223v1055h193z" />
    <glyph glyph-name="K" unicode="K" horiz-adv-x="1318" 
d="M432 895l582 539h246l-580 -551l637 -883h-225l-547 762l-187 -178v-584h-188v1434h188v-506q0 -64 -57 -185l33 -16q2 5 12.5 27.5t14.5 32t14 29t17.5 31t18 25t21.5 23.5z" />
    <glyph glyph-name="L" unicode="L" horiz-adv-x="1163" 
d="M358 176h725v-176h-913v1434h188v-1258z" />
    <glyph glyph-name="M" unicode="M" horiz-adv-x="1937" 
d="M362 1040v-1040h-192v1434h268l494 -1115q5 -11 8.5 -23.5t5.5 -28.5t3.5 -26.5t2 -30.5t0.5 -26.5v-29v-25.5h37v29.5v35t1 31t3.5 35t6.5 29.5t10 30l493 1115h264v-1434h-190v1040q0 26 6 59t16.5 75t14.5 59l-35 6q-4 -18 -10 -59.5t-13.5 -74t-17.5 -56.5
l-461 -1049h-215l-463 1049q-10 24 -17 55t-13.5 77.5t-8.5 57.5l-34 -6q2 -9 19 -83.5t17 -109.5z" />
    <glyph glyph-name="N" unicode="N" horiz-adv-x="1527" 
d="M360 956v-956h-190v1434h190l717 -988q53 -72 119 -268l33 12q-64 199 -64 285v959h193v-1434h-193l-716 985q-24 33 -49 88t-34.5 82.5t-33.5 97.5l-35 -12q63 -182 63 -285z" />
    <glyph glyph-name="O" unicode="O" horiz-adv-x="1542" 
d="M86 717q0 210 88.5 381t245.5 268.5t352 97.5q194 0 351.5 -98.5t246 -269.5t88.5 -379q0 -207 -88.5 -378.5t-246 -271.5t-351.5 -100t-351.5 98t-246 270t-88.5 382zM276 717q0 -109 34.5 -210.5t97 -180.5t157.5 -126.5t207 -47.5q90 0 169 31t138 85t101.5 125.5
t64 154t21.5 169.5q0 110 -34.5 211t-96.5 179.5t-156.5 125.5t-206.5 47t-207 -47t-157.5 -125.5t-97 -179.5t-34.5 -211z" />
    <glyph glyph-name="P" unicode="P" horiz-adv-x="1232" 
d="M604 598q-150 0 -248 2v-600h-192v1434h465q99 0 176 -9.5t151 -36t122.5 -71t78 -119t29.5 -174.5q0 -101 -29.5 -176.5t-79.5 -122.5t-125.5 -76t-158.5 -40t-189 -11zM356 770h258q49 0 84 1.5t78 7.5t72 16.5t59 29.5t48 46t29 66.5t11 90.5q0 34 -4.5 62t-15 50
t-22 39t-32 29.5t-37 21.5t-45 14.5t-49 8.5t-55.5 4.5t-58 2t-63 0.5h-258v-490z" />
    <glyph glyph-name="Q" unicode="Q" horiz-adv-x="1566" 
d="M1008 35q-35 -21 -61 -33t-74.5 -23.5t-104.5 -11.5q-196 0 -352.5 98.5t-243 269.5t-86.5 382q0 158 52 296t143 237.5t221.5 156.5t281.5 57q201 0 361 -95.5t249 -263.5t89 -378q0 -198 -67 -356.5t-202 -257.5l164 -291h-188l-98 190q-18 34 4 119l-35 10
q-18 -69 -35 -90q-8 -10 -18 -16zM1165 358q57 83 94 181t37 188q0 148 -62 275t-180 205.5t-268 78.5q-113 0 -209.5 -46.5t-161.5 -125t-102 -181.5t-37 -216q0 -151 60.5 -281.5t175.5 -211.5t260 -81q119 0 232 66l-166 295h188l70 -137q4 -9 6.5 -20t4 -19t1 -23
t-1 -20t-2.5 -23t-2 -20l35 -2q9 86 28 118z" />
    <glyph glyph-name="R" unicode="R" horiz-adv-x="1316" 
d="M940 637q123 -66 178 -279l111 -358h-195q-42 159 -92 342q-14 48 -34.5 86t-40.5 62.5t-47.5 42.5t-47.5 27t-49 14.5t-43 7t-39 2.5q-16 -2 -53 -2q-24 0 -106.5 1t-123.5 1v-584h-188v1434h457q100 0 178.5 -9.5t154 -35.5t125 -70t79.5 -116.5t30 -170.5
q0 -71 -19 -126.5t-56 -94.5t-79 -64.5t-100 -48.5q-18 -7 -43.5 -10t-43.5 -3.5t-50 0.5t-43 1v-37q11 0 55 3.5t73.5 0.5t51.5 -16zM358 1276v-522h263q66 0 116.5 5.5t102.5 22.5t85.5 46.5t54.5 80t21 119.5q0 49 -10.5 86.5t-27 63.5t-45.5 44.5t-57.5 28.5t-71.5 16
t-79.5 7.5t-88.5 1.5h-263z" />
    <glyph glyph-name="S" unicode="S" horiz-adv-x="1333" 
d="M1223 1155l-176 -45q-40 78 -142.5 131t-245.5 53q-90 0 -168.5 -23t-131 -71t-52.5 -113q0 -38 32 -70.5t86.5 -58t125.5 -50t149 -50.5t156 -55t149 -68.5t125.5 -86.5t86.5 -112.5t32 -142.5q0 -106 -48 -188.5t-131.5 -133t-188.5 -76.5t-226 -26q-213 0 -360.5 99
t-210.5 260l178 45q32 -76 96.5 -128t141.5 -75t164 -23q170 0 272 62.5t102 159.5q0 54 -32 98.5t-85.5 77t-123 61t-147 54.5t-154.5 53t-146.5 61.5t-123 76t-85.5 100t-32 128.5q0 96 50 172t132.5 121t182 68.5t206.5 23.5q204 0 348 -91.5t195 -217.5z" />
    <glyph glyph-name="T" unicode="T" horiz-adv-x="1163" 
d="M678 0h-193v1257h-411v177h1016v-177h-412v-1257z" />
    <glyph glyph-name="U" unicode="U" horiz-adv-x="1464" 
d="M1323 1434l2 -936q0 -166 -79 -287.5t-212 -181.5t-303 -60q-169 0 -301.5 60t-211.5 181.5t-79 287.5v936h193v-912q2 -151 116.5 -261.5t284.5 -110.5q112 0 205 52t144.5 137.5t50.5 184.5v910h190z" />
    <glyph glyph-name="V" unicode="V" horiz-adv-x="1419" 
d="M266 1434l410 -1065q7 -18 10.5 -44.5t4 -42.5t0 -53t-0.5 -43h37q0 6 -0.5 34.5t0 41t1.5 35.5t4.5 40t8.5 32l408 1065h207l-529 -1434h-237l-529 1434h205z" />
    <glyph glyph-name="W" unicode="W" horiz-adv-x="1890" 
d="M913 1061l-297 -1061h-229l-356 1434h190l254 -1057q4 -19 5.5 -45.5t1 -44.5t-2.5 -50.5t-2 -43.5h35v55t2.5 73.5t9.5 55.5l318 1057h205l319 -1057q7 -25 9.5 -55.5t2.5 -73.5v-55h35q0 17 -2 57t-1.5 71t5.5 56l254 1057h191l-357 -1434h-229l-299 1061
q-6 25 -9 58.5t-3.5 55t0 65t0.5 54.5h-37q0 -12 0.5 -44t0 -50.5t-1.5 -45.5t-4 -50t-8 -43z" />
    <glyph glyph-name="X" unicode="X" horiz-adv-x="1296" 
d="M596 528l-356 -528h-203l489 750l-458 684h219l309 -484q13 -20 19.5 -50.5t7 -46.5t0.5 -56h34q0 3 0.5 15t0.5 16t1 15.5t1.5 16.5t2 15.5t3 16t3.5 14.5t5 15.5t6.5 13.5t7.5 13l338 486h203l-469 -711l500 -723h-220l-352 528q-29 41 -29 154h-34q0 -108 -29 -154z
" />
    <glyph glyph-name="Y" unicode="Y" horiz-adv-x="1236" 
d="M217 1434l365 -525q15 -21 23.5 -54.5t9.5 -52.5t3 -61h35q0 123 31 170l334 523h205l-490 -756v-664h-190v664l-531 756h205z" />
    <glyph glyph-name="Z" unicode="Z" horiz-adv-x="1220" 
d="M92 172l752 1010q33 45 145 102l-16 31q-114 -58 -168 -58h-692v177h1015v-177h-2l-749 -1005q-7 -9 -15.5 -18t-20 -17.5t-20 -14.5t-24 -15t-22 -12.5t-24.5 -13t-22 -11.5l17 -31q116 57 168 57h714v-176h-1036v172z" />
    <glyph glyph-name="bracketleft" unicode="[" horiz-adv-x="841" 
d="M184 1434h504v-174h-311v-1418h311v-174h-504v1766z" />
    <glyph glyph-name="backslash" unicode="\" horiz-adv-x="741" 
d="M104 1464h195l367 -1464h-195z" />
    <glyph glyph-name="bracketright" unicode="]" horiz-adv-x="856" 
d="M692 -332h-504v174h312v1418h-312v174h504v-1766z" />
    <glyph glyph-name="asciicircum" unicode="^" horiz-adv-x="1171" 
d="M559 1186l-268 -506h-191l400 768l-2 4h176v-4l397 -768h-190l-267 506q-6 11 -9 26t-3 26.5t1 30.5t1 27h-37q0 -9 1 -27t1 -30t-2 -27t-8 -26z" />
    <glyph glyph-name="underscore" unicode="_" horiz-adv-x="1085" 
d="M57 -313v166h910v-166h-910z" />
    <glyph glyph-name="a" unicode="a" horiz-adv-x="1286" 
d="M922 102q-125 -135 -330 -135q-150 0 -271 74t-187 199.5t-66 277.5q0 151 66.5 273.5t186.5 193t271 70.5q204 0 328 -127q15 -16 27.5 -41t19.5 -46t16 -53.5t14 -46.5l35 13q-3 10 -16 44t-19 52.5t-12.5 46.5t-7.5 49l-4 78h180v-1024h-180l4 84q1 27 9 59.5t24 77.5
t20 58l-33 10q-4 -13 -17.5 -58.5t-26.5 -76.5t-31 -52zM246 518q0 -105 40 -190.5t121 -138t189 -52.5q157 0 250.5 111.5t101.5 269.5q0 171 -92.5 269t-259.5 98q-164 0 -257 -102.5t-93 -264.5z" />
    <glyph glyph-name="b" unicode="b" horiz-adv-x="1286" 
d="M328 1485v-541q0 -15 -2.5 -32.5t-5.5 -31t-9.5 -35t-10 -32t-11.5 -33.5t-10 -30l34 -11q3 11 13 45t16 53.5t19 45t28 41.5q120 133 316 133q146 0 264 -74.5t183.5 -200t66.5 -276.5t-64 -273.5t-183 -193t-267 -70.5q-197 0 -316 125q-15 15 -28 40.5t-19 44t-16 55
t-13 45.5l-34 -13q4 -11 15 -44t17 -52t11.5 -47t5.5 -49v-74h-178v1485h178zM692 139q165 0 256.5 102.5t91.5 264.5q0 106 -39 191t-119 137.5t-190 52.5t-190 -52.5t-119 -137.5t-39 -191q0 -162 91.5 -264.5t256.5 -102.5z" />
    <glyph glyph-name="c" unicode="c" horiz-adv-x="1189" 
d="M84 518q0 117 40 217t110.5 170.5t171 110.5t217.5 41q91 -1 170 -25t133 -61t95 -84t63 -92.5t30 -87.5h-186q-7 26 -29 55t-58 57.5t-93.5 47t-124.5 18.5q-170 0 -265.5 -101t-95.5 -264q0 -164 103 -272.5t276 -108.5q67 0 122.5 19t89.5 48t53.5 57.5t27.5 55.5h186
q-9 -44 -30 -89t-60.5 -93t-91.5 -85t-129.5 -60.5t-167.5 -24.5q-159 1 -286.5 73t-199 197.5t-71.5 280.5z" />
    <glyph glyph-name="d" unicode="d" horiz-adv-x="1269" 
d="M958 944v541h179v-1485h-179v74q0 21 5.5 49t12 47.5t17.5 51t15 44.5l-35 13q-3 -9 -13 -45.5t-16 -55t-19 -44t-28 -40.5q-122 -125 -322 -125q-227 0 -368 152.5t-139 384.5q1 113 37.5 214t101.5 175.5t160.5 118t207.5 43.5q199 0 322 -133q15 -16 28 -41.5t19 -45
t16 -53.5t13 -45l35 11q-2 7 -12 35.5t-14.5 42t-11 37t-9.5 43t-3 36.5zM588 139q168 0 261 102.5t93 264.5q0 106 -39.5 191t-121 137.5t-193.5 52.5q-85 0 -151.5 -30t-107.5 -83t-62 -121t-21 -147q0 -165 87 -266t255 -101z" />
    <glyph glyph-name="e" unicode="e" horiz-adv-x="1196" 
d="M647 -33q-138 0 -249 43t-182.5 118t-109.5 175t-38 215q0 151 68 273.5t191 193t279 70.5q157 0 278 -73.5t183 -192t61 -259.5q0 -6 0.5 -25.5t0.5 -36t-1 -24.5l-862 2q0 -53 23 -106.5t66.5 -101t116 -77.5t161.5 -30q111 0 185.5 49.5t94.5 112.5h193
q-10 -35 -30.5 -74.5t-59.5 -85.5t-88.5 -82t-123 -60t-157.5 -24zM266 594h664q0 127 -88.5 215t-233.5 88q-147 0 -244.5 -92.5t-97.5 -210.5z" />
    <glyph glyph-name="f" unicode="f" horiz-adv-x="854" 
d="M291 1114q3 143 77.5 231.5t176.5 88.5h207v-160h-148q-135 0 -135 -160v-90h256v-158h-256v-860h-178v860h-203v158h203v90z" />
    <glyph glyph-name="g" unicode="g" horiz-adv-x="1306" 
d="M930 104q-124 -137 -328 -137q-146 0 -263.5 74t-182 199.5t-64.5 277.5q0 151 64.5 273.5t181.5 193t264 70.5q203 0 324 -127q19 -20 33 -51t27.5 -75.5t19.5 -60.5l32 13q-3 9 -21 56.5t-26 77.5t-10 58l-4 78h180v-1053q-1 -109 -28.5 -194t-86.5 -151.5t-160.5 -102
t-240.5 -35.5q-230 0 -361 104.5t-139 290.5h185q2 -53 23.5 -94t52.5 -65t71.5 -39.5t76.5 -21t71 -5.5q356 0 356 322q0 73 2 106q2 27 11.5 59t25 73.5t20.5 55.5l-32 13q-5 -13 -18 -57.5t-26 -75t-30 -50.5zM270 516q0 -164 91 -270.5t255 -106.5q156 0 246.5 97
t98.5 249v60q-8 150 -98.5 244t-246.5 94q-165 0 -255.5 -102.5t-90.5 -264.5z" />
    <glyph glyph-name="h" unicode="h" horiz-adv-x="1243" 
d="M393 938q66 66 146 91.5t198 25.5q166 0 271.5 -92t105.5 -261v-702h-180v573q0 162 -63 238t-193 76q-152 0 -251 -79.5t-99 -234.5v-573h-178v1485h178v-522q0 -21 -6 -49.5t-11.5 -45t-19 -53.5t-15.5 -43l33 -12q3 8 12 35.5t14.5 41.5t15 36t20 37.5t22.5 27.5z" />
    <glyph glyph-name="i" unicode="i" horiz-adv-x="466" 
d="M133 1239v195h201v-195h-201zM145 0v1024h181v-1024h-181z" />
    <glyph glyph-name="j" unicode="j" horiz-adv-x="641" 
d="M313 1249v185h195v-185h-195zM324 33v991h174v-1024q0 -162 -61.5 -239.5t-203.5 -77.5h-143v167h100q84 0 109 40.5t25 142.5z" />
    <glyph glyph-name="k" unicode="k" horiz-adv-x="1089" 
d="M383 727l342 295h244l-430 -395l536 -629h-239l-424 512l-101 -96l2 -414h-180v1485h180v-725q0 -58 -55 -170l33 -15q52 116 92 152z" />
    <glyph glyph-name="l" unicode="l" horiz-adv-x="663" 
d="M195 248v1237h180v-1204q0 -63 25.5 -87t91.5 -24h139v-170h-131q-160 0 -232.5 59t-72.5 189z" />
    <glyph glyph-name="m" unicode="m" horiz-adv-x="1802" 
d="M1044 967q114 88 240 88q163 0 267 -92t104 -261v-702h-180v584q0 165 -57.5 242t-176.5 77q-130 0 -188 -76.5t-58 -242.5v-584h-180v584q0 165 -59 242t-183 77q-134 0 -197 -77.5t-63 -241.5v-584h-180v1024h180v-12q0 -86 -59 -289l33 -10q5 15 23 87t36.5 115.5
t46.5 71.5q38 38 89.5 53t135.5 15q160 0 244 -64q20 -16 31.5 -44t15.5 -49.5t2 -65t-4 -57.5t-8 -60l37 -4q26 194 108 256z" />
    <glyph glyph-name="n" unicode="n" horiz-adv-x="1247" 
d="M408 967q67 55 138 71.5t191 16.5q166 0 271.5 -92t105.5 -261v-702h-180v573q0 162 -63 238t-193 76q-152 0 -251 -79.5t-99 -234.5v-573h-178v1024h178v-23q0 -75 -60 -215l33 -12q3 6 20 48t25 59t25.5 44t36.5 42z" />
    <glyph glyph-name="o" unicode="o" horiz-adv-x="1228" 
d="M72 516q0 237 152 388t394 151q241 0 394 -152.5t153 -386.5q0 -154 -68.5 -279t-194 -197.5t-284.5 -72.5t-284 72t-193.5 197t-68.5 280zM256 516q0 -105 38.5 -188.5t122 -136t201.5 -52.5q175 0 269 106.5t94 270.5q0 163 -93.5 265t-269.5 102t-269 -102t-93 -265z
" />
    <glyph glyph-name="p" unicode="p" horiz-adv-x="1284" 
d="M328 80v-592h-178v1536h178v-74q0 -13 -1.5 -26.5t-5 -29t-6 -27t-9 -30t-9 -26.5t-10 -28.5t-8.5 -24.5l34 -13q2 6 13 45.5t17 55.5t19 42.5t27 41.5q122 125 322 125q151 0 268.5 -70.5t179.5 -192.5t60 -274q-1 -152 -63.5 -277t-179 -199.5t-265.5 -74.5
q-199 0 -322 133q-14 16 -27 42t-19 44t-16.5 54t-13.5 45l-34 -11q2 -7 10 -30t11.5 -33.5t10 -32t9.5 -35t5.5 -31t2.5 -32.5zM700 887q-169 0 -262.5 -103t-93.5 -266t94 -272t262 -109q165 0 252.5 108t87.5 273t-86.5 267t-253.5 102z" />
    <glyph glyph-name="q" unicode="q" horiz-adv-x="1296" 
d="M969 -512v592q0 15 2.5 32.5t5.5 31t9.5 35t10 32t11.5 33.5t10 30l-35 11q-3 -9 -13.5 -45t-16.5 -54t-19 -44t-27 -42q-127 -133 -323 -133q-148 0 -264.5 74.5t-179.5 200t-64 276.5q-1 152 61.5 274t180 192.5t268.5 70.5q200 0 319 -125q15 -15 28.5 -41.5t19 -42
t17.5 -57t13 -44.5l35 13q-1 4 -8.5 24.5t-10 28.5t-9 26.5t-9 30t-6 27t-5 29t-1.5 26.5v74h178v-1536h-178zM596 887q-167 0 -253.5 -102t-86.5 -267t87.5 -273t252.5 -108q168 0 262 109t94 272t-93.5 266t-262.5 103z" />
    <glyph glyph-name="r" unicode="r" horiz-adv-x="894" 
d="M393 936q70 72 156 95.5t256 23.5v-170q-76 0 -142 -10.5t-129 -36.5t-107.5 -66t-71.5 -104t-27 -146v-522h-178v1024h178v-63q0 -17 -3 -35.5t-10 -41t-11.5 -36.5t-14.5 -40t-13 -34l33 -12q3 8 12 34t14.5 40.5t14.5 35.5t20 36.5t23 27.5z" />
    <glyph glyph-name="s" unicode="s" horiz-adv-x="1118" 
d="M1038 301q0 -160 -114 -247t-332 -87q-134 0 -251.5 46t-188 124.5t-70.5 169.5h180q0 -60 103.5 -115t236.5 -55q252 0 252 148q0 55 -42 90.5t-109 53t-148 30.5t-162 31.5t-148 46.5t-109 84t-42 137q0 124 122.5 210.5t326.5 86.5q202 0 334.5 -82t132.5 -209h-181
q0 59 -82 95t-210 36q-113 0 -185.5 -38t-72.5 -101q0 -40 42 -65.5t109 -39t147.5 -25.5t161.5 -33t148 -52.5t109 -93t42 -146.5z" />
    <glyph glyph-name="t" unicode="t" horiz-adv-x="864" 
d="M313 279v577h-204v164h204v344h179v-344h266v-164h-266v-577q0 -62 30.5 -85.5t104.5 -23.5h121v-170h-193q-115 0 -178.5 78.5t-63.5 200.5z" />
    <glyph glyph-name="u" unicode="u" horiz-adv-x="1210" 
d="M817 74q-67 -64 -134 -84.5t-179 -20.5q-98 0 -181 39t-137.5 121t-54.5 193v702h178v-580q0 -155 62.5 -232t169.5 -77q59 0 114.5 18t103.5 53.5t77.5 97t29.5 140.5v580h181v-1024h-181l2 53q1 17 6.5 38.5t12 37t17 40t14.5 34.5l-35 12q-2 -5 -9.5 -27.5
t-11.5 -32.5t-11.5 -28t-16 -30.5t-17.5 -22.5z" />
    <glyph glyph-name="v" unicode="v" horiz-adv-x="1263" 
d="M264 1024l328 -707q5 -10 8.5 -21.5t5.5 -21t4 -24.5t2.5 -23.5t1 -25t0.5 -23v-24v-21.5h35v17.5v19.5v18.5t0.5 20t1.5 18.5t2 20t3 17.5t4 19t5 16.5t7 17l327 707h187l-451 -1024h-198l-459 1024h186z" />
    <glyph glyph-name="w" unicode="w" horiz-adv-x="1726" 
d="M236 1024l239 -725q5 -16 6.5 -37.5t1.5 -36t-2 -42.5t-2 -36h37q0 6 -1.5 44.5t0.5 63t9 44.5l246 725h184l248 -725q7 -20 9 -44.5t0.5 -63t-1.5 -44.5h35q0 9 -1.5 46t0 61.5t7.5 44.5l240 725h188l-356 -1024h-205l-233 752q-5 20 -6 45t0.5 59t1.5 45h-35
q0 -9 1.5 -44.5t0 -60t-7.5 -44.5l-234 -752h-203l-356 1024h189z" />
    <glyph glyph-name="x" unicode="x" horiz-adv-x="1071" 
d="M494 346l-248 -346h-207l397 543l-373 481h207l224 -301q7 -9 11 -19t5.5 -24t2 -21t0 -25t-0.5 -22h35q0 83 18 109l234 303h207l-379 -502l403 -522h-207l-258 346q-18 28 -18 113l-35 -2q0 -4 0.5 -22t0 -25t-2 -21t-5.5 -24t-11 -19z" />
    <glyph glyph-name="y" unicode="y" horiz-adv-x="1214" 
d="M254 1024l324 -711q5 -11 9 -23t6.5 -28t4 -25t2 -30t0.5 -25.5v-29.5v-25h37v22.5v24.5t0.5 23t1 25.5t2.5 23.5t4 24.5t5.5 21t8.5 21.5l324 711h205l-471 -1022q-9 -20 -38 -81t-46 -99q-37 -85 -65.5 -137.5t-69 -102t-90.5 -72t-115 -22.5h-211v174h143q31 0 55 5
t44.5 19t33.5 25.5t30.5 40.5t26.5 46.5t29 58.5l74 155l-469 1012h205z" />
    <glyph glyph-name="z" unicode="z" horiz-adv-x="1087" 
d="M96 164l580 645q12 13 29.5 22.5t45 20.5t35.5 14l-14 33q-7 -3 -27 -13t-31.5 -15t-29 -10t-31.5 -5h-544v168h862v-168l-578 -635q-10 -12 -26.5 -22t-28 -15t-35 -14.5t-29.5 -11.5l15 -33q9 4 30 13t33.5 14.5t31 10.5t32.5 5h577v-168h-897v164z" />
    <glyph glyph-name="braceleft" unicode="{" horiz-adv-x="866" 
d="M457 539q24 -69 24 -199v-221q0 -90 60.5 -137.5t167.5 -47.5l-2 -165q-88 0 -180 37.5t-155 103t-63 137.5q0 22 1.5 70t2.5 89.5t0.5 93.5t-5 93t-13 77t-25.5 55.5t-41 19.5h-114v174h114q23 0 40 19t25.5 54t13.5 74.5t5.5 90.5t-0.5 91t-2.5 87.5t-1.5 68.5
q0 66 37 121t96 89t128 52.5t137 18.5l2 -166q-107 0 -167.5 -47.5t-60.5 -136.5v-316q0 -47 -18 -96q-14 -38 -55.5 -55t-94.5 -15v-37q117 -4 144 -77z" />
    <glyph glyph-name="bar" unicode="|" horiz-adv-x="1128" 
d="M471 -512v2011h186v-2011h-186z" />
    <glyph glyph-name="braceright" unicode="}" horiz-adv-x="684" 
d="M346 340q0 127 25 199q27 73 143 77v37q-122 -4 -149 70q-19 43 -19 96v316q0 89 -60.5 136.5t-166.5 47.5l2 166q68 0 136.5 -18.5t127.5 -52.5t96 -89t37 -121q0 -22 -1.5 -69t-2.5 -87t-0.5 -91t5 -90.5t13.5 -74.5t25.5 -54t40.5 -19h115v-174h-115q-24 0 -41 -19.5
t-25.5 -55.5t-13 -77t-5 -93t0.5 -93.5t2.5 -89.5t1.5 -70q0 -72 -62.5 -137.5t-154.5 -103t-180 -37.5l-2 165q106 0 166.5 48t60.5 137v221z" />
    <glyph glyph-name="endash" unicode="&#x2013;" horiz-adv-x="1024" 
d="M125 475v148h856v-148h-856z" />
    <glyph glyph-name="quotedblleft" unicode="&#x201c;" horiz-adv-x="741" 
d="M250 1219h61v-195h-205v197q-2 103 51 176t144 73v-92q-88 0 -96 -112q-4 -27 -51 -68l24 -24q6 4 16.5 14t17.5 15.5t17.5 10.5t20.5 5zM545 1219h59v-195h-205v197q0 104 52.5 176.5t144.5 72.5v-92q-85 0 -98 -112q-1 -8 -3.5 -15t-9 -15t-10.5 -12.5t-13.5 -13.5
t-12.5 -12l24 -24q2 2 14.5 14t18 16t17 9.5t22.5 5.5z" />
    <glyph glyph-name="quotedblright" unicode="&#x201d;" horiz-adv-x="727" 
d="M467 1274h-61v194h204v-196q0 -104 -51.5 -176t-142.5 -72v92q83 0 96 111q1 10 7.5 20.5t10.5 15.5t16.5 17t14.5 14l-24 27l-12 -12l-13.5 -13.5t-12.5 -10t-16.5 -9t-15.5 -2.5zM172 1274h-61v194h204v-196q2 -103 -50.5 -175.5t-143.5 -72.5v92q83 0 96 111
q1 10 7.5 20.5t10.5 15.5t16.5 17t14.5 14l-24 27l-12 -12l-13.5 -13.5t-12.5 -10t-16.5 -9t-15.5 -2.5z" />
    <glyph glyph-name="bullet" unicode="&#x2022;" horiz-adv-x="770" 
d="M295 565v353h352v-353h-352z" />
    <glyph glyph-name="uni000D.1" 
 />
    </font>
</defs>
</svg>
