<svg fill="none" xmlns="http://www.w3.org/2000/svg" viewBox="0 0 526 55"><path fill="#FFD029" d="M-66 0h628.15v55H-66z"/><path d="M53.932 42.07c-1.84 0-3.3-.33-4.38-.99a5.514 5.514 0 0 1-2.25-2.82c-.44-1.22-.66-2.65-.66-4.29v-8.76c0-1.68.22-3.12.66-4.32.44-1.22 1.19-2.16 2.25-2.82 1.08-.66 2.54-.99 4.38-.99 1.8 0 3.2.3 4.2.9 1.02.58 1.74 1.4 2.16 2.46.42 1.06.63 2.28.63 3.66v2.1h-5.25v-2.43c0-.48-.03-.94-.09-1.38-.04-.44-.18-.8-.42-1.08-.24-.3-.65-.45-1.23-.45-.56 0-.98.15-1.26.45-.26.3-.43.68-.51 1.14-.06.44-.09.91-.09 1.41v11.43c0 .54.04 1.04.12 1.5.1.44.28.8.54 1.08.28.26.68.39 1.2.39.56 0 .96-.14 1.2-.42.24-.3.39-.68.45-1.14.06-.46.09-.93.09-1.41v-2.55h5.25v2.1c0 1.38-.21 2.62-.63 3.72-.4 1.08-1.11 1.94-2.13 2.58-1 .62-2.41.93-4.23.93Zm16.005 0c-1.82 0-3.26-.32-4.32-.96-1.06-.64-1.82-1.56-2.28-2.76-.46-1.2-.69-2.63-.69-4.29v-9.03c0-1.68.23-3.11.69-4.29.46-1.18 1.22-2.08 2.28-2.7 1.06-.64 2.5-.96 4.32-.96 1.84 0 3.29.32 4.35.96 1.08.62 1.85 1.52 2.31 2.7.46 1.18.69 2.61.69 4.29v9.03c0 1.66-.23 3.09-.69 4.29-.46 1.2-1.23 2.12-2.31 2.76-1.06.64-2.51.96-4.35.96Zm0-3.81c.56 0 .97-.14 1.23-.42.26-.28.43-.64.51-1.08.08-.44.12-.89.12-1.35v-11.7c0-.48-.04-.93-.12-1.35-.08-.44-.25-.8-.51-1.08s-.67-.42-1.23-.42c-.52 0-.91.14-1.17.42-.26.28-.43.64-.51 1.08-.08.42-.12.87-.12 1.35v11.7c0 .46.03.91.09 1.35.08.44.24.8.48 1.08.26.28.67.42 1.23.42Zm9.628 3.45.42-24.3h5.76l2.67 14.13 2.88-14.13h5.55l.42 24.3h-3.81l-.45-16.17-2.82 16.17h-3.39l-3-16.29-.36 16.29h-3.87Zm20.343 0v-24.3h5.37v24.3h-5.37Zm8.093 0v-24.3h3.78l4.98 11.7v-11.7h4.44v24.3h-3.63l-4.98-12.6v12.6h-4.59Zm22.247.36c-1.68 0-3.01-.35-3.99-1.05-.96-.7-1.65-1.68-2.07-2.94-.4-1.28-.6-2.75-.6-4.41v-8.16c0-1.72.22-3.21.66-4.47.44-1.26 1.19-2.23 2.25-2.91 1.08-.7 2.54-1.05 4.38-1.05 1.8 0 3.21.3 4.23.9 1.04.6 1.78 1.43 2.22 2.49.44 1.06.66 2.3.66 3.72v1.56h-5.25v-1.98c0-.52-.04-1-.12-1.44-.06-.44-.22-.79-.48-1.05-.24-.28-.64-.42-1.2-.42-.58 0-1 .16-1.26.48-.26.3-.43.68-.51 1.14-.06.46-.09.94-.09 1.44v11.25c0 .54.05 1.05.15 1.53.12.46.32.84.6 1.14.3.28.72.42 1.26.42.56 0 .99-.15 1.29-.45.3-.3.51-.69.63-1.17s.18-.99.18-1.53v-2.85h-2.19v-3.15h7.02v12.6h-3.54l-.3-2.01c-.32.68-.79 1.25-1.41 1.71-.62.44-1.46.66-2.52.66Zm23.456 0c-1.52 0-2.79-.27-3.81-.81s-1.79-1.37-2.31-2.49c-.52-1.14-.81-2.61-.87-4.41l4.59-.69c.02 1.04.11 1.88.27 2.52.18.64.42 1.1.72 1.38.32.28.7.42 1.14.42.56 0 .92-.19 1.08-.57.18-.38.27-.78.27-1.2 0-1-.24-1.84-.72-2.52-.48-.7-1.13-1.4-1.95-2.1l-2.1-1.83c-.92-.78-1.7-1.66-2.34-2.64-.62-1-.93-2.23-.93-3.69 0-2.06.61-3.63 1.83-4.71 1.22-1.1 2.88-1.65 4.98-1.65 1.3 0 2.34.22 3.12.66.8.44 1.4 1.02 1.8 1.74.42.7.7 1.45.84 2.25.16.78.25 1.53.27 2.25l-4.62.57c-.02-.72-.07-1.34-.15-1.86-.06-.54-.2-.95-.42-1.23-.22-.3-.56-.45-1.02-.45-.5 0-.87.21-1.11.63-.22.42-.33.84-.33 1.26 0 .9.21 1.64.63 2.22.44.56 1.01 1.15 1.71 1.77l2.01 1.77c1.06.9 1.95 1.92 2.67 3.06.74 1.14 1.11 2.55 1.11 4.23 0 1.14-.26 2.18-.78 3.12-.52.92-1.26 1.65-2.22 2.19-.94.54-2.06.81-3.36.81Zm15.021 0c-1.82 0-3.26-.32-4.32-.96-1.06-.64-1.82-1.56-2.28-2.76-.46-1.2-.69-2.63-.69-4.29v-9.03c0-1.68.23-3.11.69-4.29.46-1.18 1.22-2.08 2.28-2.7 1.06-.64 2.5-.96 4.32-.96 1.84 0 3.29.32 4.35.96 1.08.62 1.85 1.52 2.31 2.7.46 1.18.69 2.61.69 4.29v9.03c0 1.66-.23 3.09-.69 4.29-.46 1.2-1.23 2.12-2.31 2.76-1.06.64-2.51.96-4.35.96Zm0-3.81c.56 0 .97-.14 1.23-.42.26-.28.43-.64.51-1.08.08-.44.12-.89.12-1.35v-11.7c0-.48-.04-.93-.12-1.35-.08-.44-.25-.8-.51-1.08s-.67-.42-1.23-.42c-.52 0-.91.14-1.17.42-.26.28-.43.64-.51 1.08-.08.42-.12.87-.12 1.35v11.7c0 .46.03.91.09 1.35.08.44.24.8.48 1.08.26.28.67.42 1.23.42Zm16.678 3.81c-1.82 0-3.26-.32-4.32-.96-1.06-.64-1.82-1.56-2.28-2.76-.46-1.2-.69-2.63-.69-4.29v-9.03c0-1.68.23-3.11.69-4.29.46-1.18 1.22-2.08 2.28-2.7 1.06-.64 2.5-.96 4.32-.96 1.84 0 3.29.32 4.35.96 1.08.62 1.85 1.52 2.31 2.7.46 1.18.69 2.61.69 4.29v9.03c0 1.66-.23 3.09-.69 4.29-.46 1.2-1.23 2.12-2.31 2.76-1.06.64-2.51.96-4.35.96Zm0-3.81c.56 0 .97-.14 1.23-.42.26-.28.43-.64.51-1.08.08-.44.12-.89.12-1.35v-11.7c0-.48-.04-.93-.12-1.35-.08-.44-.25-.8-.51-1.08s-.67-.42-1.23-.42c-.52 0-.91.14-1.17.42-.26.28-.43.64-.51 1.08-.08.42-.12.87-.12 1.35v11.7c0 .46.03.91.09 1.35.08.44.24.8.48 1.08.26.28.67.42 1.23.42Zm9.718 3.45v-24.3h3.78l4.98 11.7v-11.7h4.44v24.3h-3.63l-4.98-12.6v12.6h-4.59ZM302.932 42.07c-1.84 0-3.3-.33-4.38-.99a5.514 5.514 0 0 1-2.25-2.82c-.44-1.22-.66-2.65-.66-4.29v-8.76c0-1.68.22-3.12.66-4.32.44-1.22 1.19-2.16 2.25-2.82 1.08-.66 2.54-.99 4.38-.99 1.8 0 3.2.3 4.2.9 1.02.58 1.74 1.4 2.16 2.46.42 1.06.63 2.28.63 3.66v2.1h-5.25v-2.43c0-.48-.03-.94-.09-1.38-.04-.44-.18-.8-.42-1.08-.24-.3-.65-.45-1.23-.45-.56 0-.98.15-1.26.45-.26.3-.43.68-.51 1.14-.06.44-.09.91-.09 1.41v11.43c0 .54.04 1.04.12 1.5.1.44.28.8.54 1.08.28.26.68.39 1.2.39.56 0 .96-.14 1.2-.42.24-.3.39-.68.45-1.14.06-.46.09-.93.09-1.41v-2.55h5.25v2.1c0 1.38-.21 2.62-.63 3.72-.4 1.08-1.11 1.94-2.13 2.58-1 .62-2.41.93-4.23.93Zm16.005 0c-1.82 0-3.26-.32-4.32-.96-1.06-.64-1.82-1.56-2.28-2.76-.46-1.2-.69-2.63-.69-4.29v-9.03c0-1.68.23-3.11.69-4.29.46-1.18 1.22-2.08 2.28-2.7 1.06-.64 2.5-.96 4.32-.96 1.84 0 3.29.32 4.35.96 1.08.62 1.85 1.52 2.31 2.7.46 1.18.69 2.61.69 4.29v9.03c0 1.66-.23 3.09-.69 4.29-.46 1.2-1.23 2.12-2.31 2.76-1.06.64-2.51.96-4.35.96Zm0-3.81c.56 0 .97-.14 1.23-.42.26-.28.43-.64.51-1.08.08-.44.12-.89.12-1.35v-11.7c0-.48-.04-.93-.12-1.35-.08-.44-.25-.8-.51-1.08s-.67-.42-1.23-.42c-.52 0-.91.14-1.17.42-.26.28-.43.64-.51 1.08-.08.42-.12.87-.12 1.35v11.7c0 .46.03.91.09 1.35.08.44.24.8.48 1.08.26.28.67.42 1.23.42Zm9.628 3.45.42-24.3h5.76l2.67 14.13 2.88-14.13h5.55l.42 24.3h-3.81l-.45-16.17-2.82 16.17h-3.39l-3-16.29-.36 16.29h-3.87Zm20.343 0v-24.3h5.37v24.3h-5.37Zm8.093 0v-24.3h3.78l4.98 11.7v-11.7h4.44v24.3h-3.63l-4.98-12.6v12.6h-4.59Zm22.247.36c-1.68 0-3.01-.35-3.99-1.05-.96-.7-1.65-1.68-2.07-2.94-.4-1.28-.6-2.75-.6-4.41v-8.16c0-1.72.22-3.21.66-4.47.44-1.26 1.19-2.23 2.25-2.91 1.08-.7 2.54-1.05 4.38-1.05 1.8 0 3.21.3 4.23.9 1.04.6 1.78 1.43 2.22 2.49.44 1.06.66 2.3.66 3.72v1.56h-5.25v-1.98c0-.52-.04-1-.12-1.44-.06-.44-.22-.79-.48-1.05-.24-.28-.64-.42-1.2-.42-.58 0-1 .16-1.26.48-.26.3-.43.68-.51 1.14-.06.46-.09.94-.09 1.44v11.25c0 .54.05 1.05.15 1.53.12.46.32.84.6 1.14.3.28.72.42 1.26.42.56 0 .99-.15 1.29-.45.3-.3.51-.69.63-1.17s.18-.99.18-1.53v-2.85h-2.19v-3.15h7.02v12.6h-3.54l-.3-2.01c-.32.68-.79 1.25-1.41 1.71-.62.44-1.46.66-2.52.66Zm23.456 0c-1.52 0-2.79-.27-3.81-.81s-1.79-1.37-2.31-2.49c-.52-1.14-.81-2.61-.87-4.41l4.59-.69c.02 1.04.11 1.88.27 2.52.18.64.42 1.1.72 1.38.32.28.7.42 1.14.42.56 0 .92-.19 1.08-.57.18-.38.27-.78.27-1.2 0-1-.24-1.84-.72-2.52-.48-.7-1.13-1.4-1.95-2.1l-2.1-1.83c-.92-.78-1.7-1.66-2.34-2.64-.62-1-.93-2.23-.93-3.69 0-2.06.61-3.63 1.83-4.71 1.22-1.1 2.88-1.65 4.98-1.65 1.3 0 2.34.22 3.12.66.8.44 1.4 1.02 1.8 1.74.42.7.7 1.45.84 2.25.16.78.25 1.53.27 2.25l-4.62.57c-.02-.72-.07-1.34-.15-1.86-.06-.54-.2-.95-.42-1.23-.22-.3-.56-.45-1.02-.45-.5 0-.87.21-1.11.63-.22.42-.33.84-.33 1.26 0 .9.21 1.64.63 2.22.44.56 1.01 1.15 1.71 1.77l2.01 1.77c1.06.9 1.95 1.92 2.67 3.06.74 1.14 1.11 2.55 1.11 4.23 0 1.14-.26 2.18-.78 3.12-.52.92-1.26 1.65-2.22 2.19-.94.54-2.06.81-3.36.81Zm15.021 0c-1.82 0-3.26-.32-4.32-.96-1.06-.64-1.82-1.56-2.28-2.76-.46-1.2-.69-2.63-.69-4.29v-9.03c0-1.68.23-3.11.69-4.29.46-1.18 1.22-2.08 2.28-2.7 1.06-.64 2.5-.96 4.32-.96 1.84 0 3.29.32 4.35.96 1.08.62 1.85 1.52 2.31 2.7.46 1.18.69 2.61.69 4.29v9.03c0 1.66-.23 3.09-.69 4.29-.46 1.2-1.23 2.12-2.31 2.76-1.06.64-2.51.96-4.35.96Zm0-3.81c.56 0 .97-.14 1.23-.42.26-.28.43-.64.51-1.08.08-.44.12-.89.12-1.35v-11.7c0-.48-.04-.93-.12-1.35-.08-.44-.25-.8-.51-1.08s-.67-.42-1.23-.42c-.52 0-.91.14-1.17.42-.26.28-.43.64-.51 1.08-.08.42-.12.87-.12 1.35v11.7c0 .46.03.91.09 1.35.08.44.24.8.48 1.08.26.28.67.42 1.23.42Zm16.678 3.81c-1.82 0-3.26-.32-4.32-.96-1.06-.64-1.82-1.56-2.28-2.76-.46-1.2-.69-2.63-.69-4.29v-9.03c0-1.68.23-3.11.69-4.29.46-1.18 1.22-2.08 2.28-2.7 1.06-.64 2.5-.96 4.32-.96 1.84 0 3.29.32 4.35.96 1.08.62 1.85 1.52 2.31 2.7.46 1.18.69 2.61.69 4.29v9.03c0 1.66-.23 3.09-.69 4.29-.46 1.2-1.23 2.12-2.31 2.76-1.06.64-2.51.96-4.35.96Zm0-3.81c.56 0 .97-.14 1.23-.42.26-.28.43-.64.51-1.08.08-.44.12-.89.12-1.35v-11.7c0-.48-.04-.93-.12-1.35-.08-.44-.25-.8-.51-1.08s-.67-.42-1.23-.42c-.52 0-.91.14-1.17.42-.26.28-.43.64-.51 1.08-.08.42-.12.87-.12 1.35v11.7c0 .46.03.91.09 1.35.08.44.24.8.48 1.08.26.28.67.42 1.23.42Zm9.718 3.45v-24.3h3.78l4.98 11.7v-11.7h4.44v24.3h-3.63l-4.98-12.6v12.6h-4.59Z" fill="#000"/></svg>