<svg fill="none" xmlns="http://www.w3.org/2000/svg" viewBox="0 0 313 503"><mask id="b" fill="#fff"><path d="M224.252 353.963v97.378a.741.741 0 0 1-.371.641l-88.007 50.804a.743.743 0 0 1-.741 0l-87.762-50.662a.738.738 0 0 0-.742 0l-87.762 50.662a.743.743 0 0 1-.741 0l-88.007-50.804a.741.741 0 0 1-.371-.641v-97.378l-88.377-51.018a.74.74 0 0 1-.371-.642V200.697a.74.74 0 0 1 .371-.642l88.377-51.018V51.669c0-.27.147-.518.383-.649l45.953-25.404L-41.878.226a.741.741 0 0 1 .754-.007l87.753 50.657c.23.133.512.133.742 0L135.133.214a.74.74 0 0 1 .741 0l88.007 50.803a.742.742 0 0 1 .371.642v97.378l88.377 51.018a.74.74 0 0 1 .371.642v101.606a.74.74 0 0 1-.371.642l-88.377 51.018Z"/></mask><path d="m-42.615 199.627.25-.433-.25.433Zm182.046-4.454a.5.5 0 1 0 .482.876l-.482-.876ZM-41.254 303.164a.499.499 0 1 0-.5-.866l.5.866Zm181.185-.86a.5.5 0 1 0-.518.855l.518-.855ZM-41.865 121.367l.256-.43-.256.43Zm-24.317-14.495.256-.429-.256.429Zm-.145-1.161-.353-.353.353.353Zm30.08-29.368a.5.5 0 0 0-.706-.708l.707.708Zm-94.255 73.127 87.637 50.59.5-.866-87.637-50.59-.5.866Zm354.513-.871-84.58 46.574.482.876 84.58-46.574-.482-.876Zm-354.013 205.797 88.749-51.232-.5-.866-88.749 51.232.5.866Zm354.513-.861-84.58-51.231-.518.855 84.58 51.232.518-.856Zm-265.514-154.55v-76.981h-1v76.981h1Zm-.606-78.048-24.317-14.494-.512.859 24.317 14.494.512-.859Zm-24.364-14.872 29.727-29.722-.707-.708-29.727 29.723.707.707Zm.047.378a.241.241 0 0 1-.047-.378l-.707-.707a1.241 1.241 0 0 0 .242 1.944l.512-.859Zm23.06 93.617a1.242 1.242 0 0 0 1.863-1.075h-1a.241.241 0 0 1-.362.209l-.5.866Zm1.863-78.056c0-.438-.23-.843-.606-1.067l-.512.859a.243.243 0 0 1 .118.208h1Zm265.255 231.959-.5-.866-.5.289v.577h1Zm-88.378 148.823-.5-.866.5.866Zm88.007-50.804.5.867-.5-.867Zm-176.51.142-.5.866.5-.866Zm87.762 50.662.5-.866-.5.866Zm-176.266 0-.5-.866.5.866Zm87.762-50.662.5.866-.5-.866Zm-176.51-.142-.5.867.5-.867Zm88.007 50.804.5-.866-.5.866Zm-88.378-148.823h1v-.577l-.5-.289-.5.866Zm-88.377-51.018.5-.866-.5.866Zm88.377-153.908.5.866.5-.289v-.577h-1Zm-88.377 51.018.5.866-.5-.866ZM46.629 50.876l.5-.866-.5.866ZM-41.124.22l-.5.866.5-.866ZM135.133.214l.5.866-.5-.866ZM47.371 50.876l-.5-.866.5.866Zm176.51.142.5-.867-.5.866ZM135.874.213l-.5.866.5-.866Zm88.378 148.823h-1v.577l.5.289.5-.866Zm88.377 51.018-.5.866.5-.866Zm0 102.89-.5-.866.5.866ZM-41.878.226l-.517-.856.517.856Zm-42.038 25.39.484.875.017-.01.016-.01-.517-.855Zm-45.953 25.404.484.875-.484-.875Zm355.121 400.321v-97.378h-2v97.378h2Zm-88.878 52.311 88.007-50.803-1-1.733-88.007 50.804 1 1.732ZM46.871 452.99l87.762 50.662 1-1.732-87.763-50.662-1 1.732Zm-87.504 50.662L47.13 452.99l-1-1.732-87.762 50.662 1 1.732Zm-89.748-50.803 88.007 50.803 1-1.732-88.007-50.804-1 1.733Zm-.871-98.886v97.378h2v-97.378h-2Zm-87.877-50.152 88.377 51.018 1-1.732-88.377-51.018-1 1.732ZM-220 200.697v101.606h2V200.697h-2Zm89.248-52.526-88.377 51.017 1 1.733 88.377-51.018-1-1.732Zm-.5-96.502v97.368h2V51.669h-2ZM47.129 50.01-40.624-.647l-1 1.732L46.13 51.742l1-1.732ZM134.633-.652 46.871 50.01l1 1.732L135.632 1.08l-1-1.732Zm89.748 50.803L136.374-.651l-1 1.732 88.007 50.804 1-1.733Zm.871 98.886V51.66h-2v97.377h2Zm-1.5.866 88.377 51.018 1-1.733-88.377-51.017-1 1.732ZM312 200.697v101.606h2V200.697h-2Zm.129 101.382-88.377 51.018 1 1.732 88.377-51.018-1-1.732ZM-42.395-.63l-42.038 25.39 1.034 1.712 42.038-25.39-1.034-1.712ZM-84.4 24.74l-45.953 25.405.968 1.75 45.953-25.404-.968-1.75ZM312 302.304a.26.26 0 0 1 .129-.224l1 1.733c.539-.311.871-.886.871-1.509h-2Zm.129-101.382a.26.26 0 0 1-.129-.224h2c0-.623-.332-1.197-.871-1.509l-1 1.733ZM223.381 51.884a.259.259 0 0 1-.129-.224h2a1.74 1.74 0 0 0-.871-1.508l-1 1.732ZM46.13 51.742a1.741 1.741 0 0 0 1.74 0l-1-1.732a.259.259 0 0 1 .26 0l-1 1.732Zm-175.382-.073c0 .094-.051.18-.133.226l-.968-1.75a1.74 1.74 0 0 0-.899 1.524h2ZM-218 200.697a.26.26 0 0 1-.129.224l-1-1.733a1.743 1.743 0 0 0-.871 1.509h2Zm-.129 101.382a.26.26 0 0 1 .129.224h-2c0 .623.332 1.198.871 1.509l1-1.733ZM-41.633 501.92a.26.26 0 0 1 .259 0l-1 1.732a1.741 1.741 0 0 0 1.741 0l-1-1.732Zm89.504-50.662a1.741 1.741 0 0 0-1.742 0l1 1.732a.26.26 0 0 1-.258 0l1-1.732ZM135.632 1.08a.26.26 0 0 1-.259 0l1-1.732a1.741 1.741 0 0 0-1.741 0l1 1.732Zm-.259 500.84a.26.26 0 0 1 .259 0l-1 1.732a1.741 1.741 0 0 0 1.741 0l-1-1.732Zm-264.755-50.804a.26.26 0 0 1 .129.225h-2c0 .622.332 1.196.871 1.508l1-1.733ZM-40.624-.647a1.741 1.741 0 0 0-1.771.017l1.034 1.712a.259.259 0 0 1-.263.003l1-1.732ZM223.252 451.34a.26.26 0 0 1 .129-.225l1 1.733c.539-.312.871-.886.871-1.508h-2Z" fill="url(#a)" mask="url(#b)"/><defs><linearGradient id="a" x1="47" y1="0" x2="47" y2="503" gradientUnits="userSpaceOnUse"><stop stop-color="#413230"/><stop offset=".442" stop-color="#F98036"/><stop offset="1" stop-color="#413230"/></linearGradient></defs></svg>