<svg fill="none" xmlns="http://www.w3.org/2000/svg" viewBox="0 0 198 59"><path d="M.732 19.614h9.211V46h5.51V19.614h9.21v-5.079H.733v5.08ZM32.707 46.56c5.553 0 9.426-2.798 10.33-7.447h-4.864c-.602 2.023-2.496 3.142-5.38 3.142-3.486 0-5.466-1.894-5.854-5.639l16.012-.042V34.98c0-6.629-4.046-10.89-10.416-10.89-6.241 0-10.589 4.605-10.589 11.277 0 6.586 4.434 11.192 10.761 11.192Zm-.13-18.165c3.143 0 5.166 1.937 5.166 4.864H27.068c.517-3.185 2.41-4.864 5.51-4.864Zm12.038 6.93c0 6.758 4.218 11.235 10.674 11.235 5.553 0 9.685-3.4 10.33-8.35h-5.294c-.56 2.323-2.41 3.615-5.036 3.615-3.357 0-5.423-2.497-5.423-6.5s2.238-6.542 5.596-6.542c2.496 0 4.26 1.248 4.863 3.658h5.252c-.56-5.122-4.52-8.35-10.33-8.35-6.285 0-10.632 4.649-10.632 11.234ZM73.488 46V34.378c0-3.185 1.937-5.51 5.252-5.51 2.668 0 4.433 1.722 4.433 5.295V46h5.251V32.915c0-5.51-2.754-8.824-8.006-8.824-3.056 0-5.552 1.334-6.887 3.4V13.976h-5.294V46h5.251Zm24.056 0V33.948c0-3.444 2.023-5.08 4.519-5.08 2.497 0 4.09 1.593 4.09 4.563V46h5.251V33.948c0-3.487 1.937-5.122 4.476-5.122 2.497 0 4.133 1.592 4.133 4.648V46h5.208V32.097c0-4.907-2.841-8.006-8.006-8.006-3.228 0-5.725 1.592-6.801 4.046-1.119-2.454-3.357-4.046-6.586-4.046-3.056 0-5.208 1.377-6.284 3.142l-.43-2.497h-4.821V46h5.25Zm61.142 0V34.55c0-3.443 1.98-5.681 5.208-5.681 2.712 0 4.477 1.721 4.477 5.294V46h5.251V32.915c0-5.51-2.755-8.824-8.092-8.824-2.884 0-5.467 1.248-6.801 3.4l-.431-2.755h-4.863V46h5.251Zm24.098 0v-5.725l3.1-3.228L191.436 46h6.026l-7.92-12.827 8.092-8.437h-6.585l-8.265 8.91v-19.67h-5.208V46h5.208Z" fill="#fff"/><path d="M127.836 35.325c0 6.629 4.778 11.191 11.364 11.191 6.586 0 11.363-4.562 11.363-11.19 0-6.63-4.777-11.192-11.363-11.192-6.586 0-11.364 4.563-11.364 11.191Zm5.252 0c0-3.874 2.496-6.5 6.112-6.5s6.112 2.626 6.112 6.5-2.496 6.5-6.112 6.5-6.112-2.626-6.112-6.5Z" fill="#000"/><mask id="a" fill="#fff"><path d="m139.389 45.745-10.348-5.974V27.823l5.174-2.988 5.174-2.987 10.347 5.975V39.77l-5.173 2.987-5.174 2.987Z"/></mask><path d="M139.389 36.186h.393a.396.396 0 0 0-.097-.258l-.296.258Zm4.973.345a.393.393 0 0 0 .401.676l-.401-.676Zm2.788-1.198.2.338-.2-.338Zm-2.587-2.587h-.393c0 .104.041.204.115.278l.278-.278Zm.393-3.046a.393.393 0 0 0-.786 0h.786Zm-7.754-1.877-.278.277.123.122.172-.007-.017-.392Zm3.894.392a.393.393 0 1 0 0-.785v.785Zm-1.314 17.53v-9.559h-.786v9.559h.786Zm-.393-9.559.296-.258h-.001v-.002l-.004-.003-.012-.014-.048-.055-.178-.203-.602-.689-1.545-1.766-.591.518 1.544 1.765.603.69.178.202.048.055a.23.23 0 0 0 .012.014l.003.004h.001l.296-.258Zm-2.668-3.009a.572.572 0 0 1-.809 0l-.556.556c.53.53 1.391.53 1.921 0l-.556-.556Zm-.809 0a.572.572 0 0 1 0-.81l-.556-.555a1.358 1.358 0 0 0 0 1.921l.556-.556Zm0-.81a.572.572 0 0 1 .809 0l.556-.555a1.358 1.358 0 0 0-1.921 0l.556.555Zm.809 0a.572.572 0 0 1 0 .81l.556.556c.531-.53.531-1.39 0-1.921l-.556.555Zm12.815 1.092-2.587 1.536.401.676 2.587-1.537-.401-.675Zm-2.587 1.536-2.587 1.536.401.676 2.587-1.536-.401-.676Zm.478.06-2.587-2.587-.555.556 2.587 2.587.555-.556Zm-2.471-2.31V29.7h-.786v3.046h.786Zm-11.019-7.632 2.987 2.987.556-.555-2.987-2.987-.556.555Zm3.282 3.102c1.288-.056 3.609 0 3.877 0v-.785c-.224 0-2.603-.057-3.911 0l.034.785Zm2.17 17.53-.393.68c.243.14.543.14.786 0l-.393-.68Zm-10.348-5.974h-.785c0 .28.149.54.393.68l.392-.68Zm0-11.948-.392-.681a.784.784 0 0 0-.393.68h.785Zm10.348-5.975.393-.68a.786.786 0 0 0-.786 0l.393.68Zm10.347 5.975h.786c0-.281-.15-.54-.393-.681l-.393.68Zm0 11.948.393.68c.243-.14.393-.4.393-.68h-.786Zm-15.521-14.936-.393-.68.393.68Zm5.567 20.23-10.348-5.975-.785 1.361 10.347 5.974.786-1.36Zm-9.955-5.294V27.823h-1.571V39.77h1.571Zm9.169-17.242 10.348 5.974.785-1.361-10.347-5.974-.786 1.36Zm10.348 16.561-5.174 2.987.786 1.361 5.173-2.987-.785-1.36Zm-5.174 2.987-5.174 2.987.786 1.361 5.174-2.987-.786-1.36Zm4.781-14.254v5.974h1.571v-5.974h-1.571Zm0 5.974v5.974h1.571v-5.974h-1.571Zm-19.517-5.294 5.174-2.987-.786-1.361-5.173 2.987.785 1.36Zm5.174-2.987 5.174-2.987-.786-1.361-5.174 2.987.786 1.36Z" fill="#fff" mask="url(#a)"/></svg>