<svg fill="none" xmlns="http://www.w3.org/2000/svg" viewBox="0 0 17 11"><path d="M17 0h-.485c-.665 1.49-1.474 2.676-2.424 3.559-.97.882-2.13 1.53-3.48 1.941 1.35.412 2.51 1.059 3.48 1.941.95.883 1.759 2.069 2.424 3.559H17c-.666-1.49-1.407-2.667-2.225-3.53a7.626 7.626 0 0 0-2.938-1.97 8.088 8.088 0 0 0 2.938-1.97C15.593 2.666 16.335 1.49 17 0ZM6.39 0h-.486C5.24 1.49 4.431 2.676 3.48 3.559 2.51 4.44 1.35 5.089 0 5.5c1.35.412 2.51 1.059 3.48 1.941.95.883 1.759 2.069 2.424 3.559h.485c-.817-1.804-1.226-3.637-1.226-5.5S5.572 1.804 6.389 0Zm2.709 5.265H4.878v.47h4.221v-.47ZM14.433 0h-.485c-.666 1.49-1.474 2.676-2.425 3.559-.97.882-2.13 1.53-3.48 1.941 1.35.412 2.51 1.059 3.48 1.941.951.883 1.76 2.069 2.425 3.559h.485c-.666-1.49-1.407-2.667-2.225-3.53A7.626 7.626 0 0 0 9.27 5.5a8.088 8.088 0 0 0 2.938-1.97c.818-.863 1.56-2.04 2.225-3.53Z" fill="#fff"/></svg>