
<svg fill="none" xmlns="http://www.w3.org/2000/svg" viewBox="0 0 229 229"><path d="m114.231 2.514 35.921 48.31.387.52.643.074 59.798 6.954-23.876 55.264-.257.595.257.595 23.876 55.263-59.798 6.954-.643.075-.387.52-35.921 48.31-35.921-48.31-.387-.52-.644-.075-59.798-6.954 23.877-55.263.257-.595-.257-.595L17.48 58.372l59.798-6.954.644-.075.386-.52 35.922-48.31Z" stroke="#2F3AF4"  stroke-width="3"/><path d="m114.231 27.898 27.671 37.215.387.52.644.075 46.064 5.356-18.393 42.572-.257.595.257.595 18.393 42.571-46.064 5.357-.644.075-.387.52-27.671 37.214-27.671-37.214-.387-.52-.644-.075-46.064-5.357 18.393-42.571.257-.595-.257-.595-18.393-42.572 46.064-5.356.644-.075.387-.52 27.671-37.215Z" fill="#000" stroke="#000" stroke-width="3"/></svg>