<svg fill="none" xmlns="http://www.w3.org/2000/svg" viewBox="0 0 30 18"><path d="M8.651 11.117v3.442c0 .895-.404 1.69-1.212 2.382-.808.678-1.776 1.017-2.901 1.017-1.14 0-2.122-.339-2.945-1.017C.771 16.248.36 15.454.36 14.559V3.605c0-.895.412-1.682 1.234-2.36C2.416.552 3.398.205 4.538.205c1.125 0 2.093.347 2.9 1.04.809.678 1.213 1.465 1.213 2.36v3.442H5.21V3.691a.417.417 0 0 0-.195-.368.752.752 0 0 0-.476-.151.752.752 0 0 0-.477.151.417.417 0 0 0-.194.368v10.782c0 .159.065.288.194.39a.84.84 0 0 0 .477.13.84.84 0 0 0 .476-.13.472.472 0 0 0 .195-.39v-3.356H8.65ZM19.267 17.742h-3.594l-.216-2.706h-1.559l-.325 2.706H10.5L12.794.422h4.135l2.338 17.32Zm-4.005-5.78-.433-5.694-.65 5.693h1.083ZM29.633 11.117v3.442c0 .895-.405 1.69-1.213 2.382-.808.678-1.775 1.017-2.9 1.017-1.141 0-2.122-.339-2.945-1.017-.823-.693-1.234-1.487-1.234-2.382V3.605c0-.895.411-1.682 1.234-2.36.823-.693 1.804-1.04 2.944-1.04 1.126 0 2.093.347 2.901 1.04.808.678 1.212 1.465 1.212 2.36v3.442H26.19V3.691a.417.417 0 0 0-.195-.368.752.752 0 0 0-.476-.151.752.752 0 0 0-.476.151.417.417 0 0 0-.195.368v10.782c0 .159.065.288.195.39a.84.84 0 0 0 .476.13.84.84 0 0 0 .476-.13.472.472 0 0 0 .195-.39v-3.356h3.442Z" fill="#fff"/></svg>