<svg fill="none" xmlns="http://www.w3.org/2000/svg" viewBox="0 0 36 36"><path d="m9.822 12.23-2.434 2.435c-.633.633-1.48.908-2.541.827-1.052-.092-1.975-.536-2.771-1.332-.807-.807-1.26-1.74-1.363-2.802-.092-1.071.179-1.924.812-2.556L9.27 1.056C9.903.423 10.75.157 11.81.26c1.072.091 2.011.54 2.818 1.347.796.796 1.235 1.724 1.316 2.786.092 1.051-.178 1.893-.811 2.526L12.7 9.353l-2.434-2.434 2.373-2.373a.417.417 0 0 0 .122-.398.753.753 0 0 0-.23-.444.752.752 0 0 0-.444-.23.417.417 0 0 0-.397.123L4.066 11.22a.472.472 0 0 0-.138.414.84.84 0 0 0 .245.428.839.839 0 0 0 .429.245.472.472 0 0 0 .413-.137l2.373-2.373 2.434 2.434ZM22.533 14.288l-3.138 3.138c-.714.714-1.53 1-2.45.857a4.187 4.187 0 0 1-2.372-1.21l-.551-.55-4.639 4.638-2.464-2.465L19.166 6.45l3.015 3.015a4.189 4.189 0 0 1 1.21 2.373c.143.919-.143 1.735-.858 2.45Zm-5.082.336 2.28-2.28c.327-.327.348-.633.062-.92l-.337-.336-3.26 3.26.336.338c.286.285.592.265.919-.062ZM23.342 35.12l-2.45-2.45 7.793-7.792-9.323 6.262-1.607-1.608 6.43-9.185-7.808 7.807-2.205-2.204L26.42 13.703l3.735 3.736-4.684 6.49 6.552-4.623 3.567 3.567L23.342 35.12Z" fill="#fff"/></svg>