<svg fill="none" xmlns="http://www.w3.org/2000/svg" viewBox="0 0 43 27"><path d="m13.48 24.2-3.24.868a8.179 8.179 0 0 1-1.114-2.481l-.941-3.514c-.116-.432-.404-.586-.864-.463l-.44.118 1.81 6.754-3.345.897L.863 9.649l4.099-1.098a4.22 4.22 0 0 1 2.68.134c.867.335 1.432.99 1.693 1.967l1.003 3.743c.202.753-.1 1.491-.908 2.215 1.11.24 1.763.724 1.957 1.448l.925 3.451c.175.655.565 1.552 1.169 2.69ZM7.01 15.017l-.78-2.907c-.119-.446-.367-.619-.743-.518l-.481.13 1.137 4.244.481-.129c.377-.1.505-.374.386-.82ZM19.718 8.116 22.44 18.28c.235.879.053 1.787-.548 2.724-.586.935-1.416 1.546-2.49 1.833a4.165 4.165 0 0 1-3.093-.336c-.975-.516-1.58-1.213-1.816-2.091l-2.723-10.164c-.235-.878-.06-1.784.527-2.718a4.165 4.165 0 0 1 2.51-1.838c1.074-.288 2.098-.174 3.073.342.99.512 1.601 1.207 1.837 2.085Zm-.569 11.18L16.36 8.882a.417.417 0 0 0-.283-.305.752.752 0 0 0-.5-.024.752.752 0 0 0-.42.27.417.417 0 0 0-.094.406l2.791 10.414a.472.472 0 0 0 .29.326.84.84 0 0 0 .493.002.84.84 0 0 0 .426-.248.472.472 0 0 0 .087-.427ZM33.576 18.814l-3.471.93-.91-2.557-1.505.403.387 2.698-2.97.796L22.841 3.76l3.994-1.07 6.741 16.124Zm-5.364-4.546L26.32 8.88l.846 5.668 1.046-.28ZM42.615 12.246c.298 1.115.18 2.178-.356 3.189-.526.992-1.41 1.655-2.65 1.987-1.241.333-2.36.281-3.359-.153-.984-.439-1.594-1.097-1.829-1.976l-.6-2.237 3.137-.84.42 1.568c.09.334.252.575.485.721.234.147.51.177.832.091.613-.164.823-.608.628-1.333a3.504 3.504 0 0 0-1.063-1.71c-.537-.499-1.323-1.035-2.359-1.61-2.139-1.234-3.443-2.73-3.914-4.487-.318-1.185-.203-2.262.345-3.23C32.879 1.257 33.8.6 35.097.252c1.088-.291 2.105-.205 3.05.259.943.45 1.53 1.107 1.762 1.97l.6 2.238-3.159.847-.453-1.694c-.079-.293-.217-.503-.415-.629a.678.678 0 0 0-.617-.126.892.892 0 0 0-.554.44c-.12.226-.141.479-.066.757.16.6.404 1.065.732 1.395.342.327 1.099.894 2.271 1.7 1.357.937 2.279 1.646 2.767 2.128.801.816 1.334 1.72 1.6 2.71Z" fill="#fff"/></svg>