<svg fill="none" xmlns="http://www.w3.org/2000/svg" viewBox="0 0 33 34"><g clip-path="url(#a)" stroke="#777CD7" stroke-width="3" stroke-linecap="round" stroke-linejoin="round"><path d="M24.164 14.723a3.216 3.216 0 0 0 1.894-6.146 3.216 3.216 0 0 0-1.894 6.146ZM9.668 18.103a3.216 3.216 0 0 0 1.894-6.146 3.216 3.216 0 0 0-1.894 6.146ZM19.745 29.063a3.216 3.216 0 0 0 1.894-6.146 3.216 3.216 0 0 0-1.894 6.146ZM12.79 17.395l5.738 6.232M21.983 12.379 13.744 14.3"/></g><defs><clipPath id="a"><path fill="#fff" transform="rotate(17.141 1.328 27.827) skewX(.012)" d="M0 0h25.715v25.723H0z"/></clipPath></defs></svg>