<svg fill="none" xmlns="http://www.w3.org/2000/svg" viewBox="0 0 50 50"><g clip-path="url(#a)"><rect width="50" height="50" rx="8" fill="#E6E1FE"/><path opacity=".3" d="M51.871-11.23c0 6.353-1.37 13.545-6.76 17.499-8.918 6.541-20.69 6.542-29.814 12.536-5.092 3.346-10.582 7.633-13.099 13.382-.714 1.632-2.02 2.98-2.72 4.579-.673 1.537-.72 3.58-1.082 5.213" stroke="#000" stroke-linecap="round"/><path d="M40.642 50c0-4.113-1.62-8.057-4.503-10.966a15.308 15.308 0 0 0-10.872-4.542 15.308 15.308 0 0 0-10.87 4.542A15.577 15.577 0 0 0 9.892 50h30.749Z" fill="#2F3DF6"/><circle cx="25" cy="26.872" fill="#2F3DF6" r="7.62"/><circle cx="43.583" cy="6.685" fill="#FF7121" r="2.674"/></g><defs><clipPath id="a"><rect width="50" height="50" rx="8" fill="#fff"/></clipPath></defs></svg>