<svg fill="none" xmlns="http://www.w3.org/2000/svg" viewBox="0 0 86 87"><g clip-path="url(#a)"><rect y="19.105" width="70" height="70" rx="20" transform="rotate(-15 0 19.105)" fill="#E6E1FE"/><path opacity=".3" d="M66.076-14.876c2.302 8.59 3.055 18.814-2.801 26.113-9.69 12.078-25.61 16.344-35.775 27.756-5.674 6.369-11.544 14.156-12.864 22.842-.375 2.465-1.652 4.763-2.02 7.178-.352 2.322.325 5.102.425 7.441" stroke="#000" stroke-linecap="round"/><path d="M73.077 71.994a21.807 21.807 0 0 0-10.063-13.198 21.43 21.43 0 0 0-16.347-2.203 21.43 21.43 0 0 0-13.055 10.082 21.807 21.807 0 0 0-2.116 16.46l41.58-11.141Z" fill="#2F3DF6"/><circle cx="43.544" cy="46.385" transform="rotate(-15 43.544 46.385)" fill="#2F3DF6" r="10.668"/><circle cx="61.359" cy="12.353" transform="rotate(-15 61.359 12.353)" fill="#FF7121" r="3.743"/></g><defs><clipPath id="a"><rect y="19.105" width="70" height="70" rx="20" transform="rotate(-15 0 19.105)" fill="#fff"/></clipPath></defs></svg>