<svg fill="none" xmlns="http://www.w3.org/2000/svg" viewBox="0 0 374 25"><path d="M8.392 23.244V4.502h6.168V2.486H0v2.016h6.168v18.742h2.224ZM47.908 23.244h13.73v-2.017H50.132v-7.71H60.75v-2.016H50.132V4.502H61.49V2.486H47.908v20.758ZM102.123 23.689c4.804 0 8.541-2.64 9.193-6.762h-2.343c-.682 2.67-2.876 4.686-6.85 4.686-4.685 0-7.888-4.181-7.888-8.778 0-4.567 3.173-8.718 7.799-8.718 3.944 0 6.109 2.016 6.791 4.655h2.343c-.653-4.092-4.36-6.731-9.134-6.731-5.753 0-9.993 4.626-10.023 10.794.03 6.198 4.3 10.854 10.112 10.854ZM144.69 23.244h2.224v-9.579h12.574v9.579h2.224V2.486h-2.224v9.163h-12.574V2.486h-2.224v20.758ZM198.955 8.001c0-.74-.326-1.69-.504-2.402l.445-.118c.148.741.267 1.72.593 2.402l7.325 15.36h2.372l7.325-15.36c.326-.682.444-1.66.593-2.402l.445.118c-.178.712-.505 1.661-.505 2.402v15.243h2.224V2.486h-2.817l-7.917 17.08c-.327.653-.297 1.602-.297 2.343h-.445c0-.741 0-1.69-.296-2.342l-7.948-17.081h-2.847v20.758h2.254V8ZM308.392 8.506c0-1.305-.474-2.907-.86-4.152l.415-.148c.386 1.245.949 2.846 1.691 3.884l10.853 15.154h2.224V2.486h-2.224v14.768c0 1.304.474 2.906.86 4.151l-.415.119c-.386-1.216-.949-2.817-1.69-3.885L308.392 2.486h-2.224v20.758h2.224V8.506ZM361.007 10.73c-.652.593-1.097 1.601-1.423 2.402l-.415-.178c.326-.801.771-1.81.771-2.699v-7.77h-2.224v20.759h2.224v-8.63l2.728-2.698 8.185 11.328h2.52l-9.222-12.781 8.392-7.977h-2.847l-8.689 8.244Z" fill="#fff"/><mask id="a" fill="#fff"><path d="M272.037 17.443v4.342a.74.74 0 0 1-.371.642l-3.586 2.071a.74.74 0 0 1-.741 0l-3.575-2.064a.74.74 0 0 0-.741 0l-3.575 2.064a.74.74 0 0 1-.741 0l-3.587-2.07a.743.743 0 0 1-.371-.643v-4.342l-3.957-2.285a.742.742 0 0 1-.371-.642v-4.141c0-.265.142-.51.371-.642l3.957-2.285V3.115c0-.27.147-.518.383-.649l1.877-1.037 1.693-1.023a.741.741 0 0 1 .754-.008l3.567 2.059a.74.74 0 0 0 .741 0l3.575-2.064a.74.74 0 0 1 .741 0l3.586 2.07a.74.74 0 0 1 .371.643v4.342l3.957 2.285a.74.74 0 0 1 .371.642v4.141a.74.74 0 0 1-.371.642l-3.957 2.285Z"/></mask><path d="m257.965 9.305.278-.481-.278.481Zm9.679-.072a.556.556 0 1 0 .537.974l-.537-.974Zm-8.289 6.193a.556.556 0 0 0-.556-.963l.556.963Zm8.845-.957a.555.555 0 1 0-.576.95l.576-.95Zm-9.484-8.575-.285.477.285-.477Zm-.064-.039.284-.477-.284.477Zm-.145-1.16-.393-.393.393.393Zm1.202-.416a.556.556 0 1 0-.786-.786l.786.786Zm-5.238 3.65 3.216 1.857.556-.962-3.216-1.857-.556.963Zm17.298-.968-4.125 2.272.537.974 4.124-2.272-.536-.974Zm-16.742 10.963 4.328-2.498-.556-.963-4.328 2.499.556.962Zm17.298-.956-4.125-2.5-.576.952 4.125 2.499.576-.951Zm-12.692-8.305V6.53h-1.112v2.133h1.112ZM259 5.416l-.064-.038-.569.955.064.038.569-.955Zm-.1-.328.809-.81-.786-.786-.809.81.786.786Zm.036.29a.186.186 0 0 1-.036-.29l-.786-.786a1.297 1.297 0 0 0 .253 2.031l.569-.955Zm-1.249 4.408c.865.5 1.946-.124 1.946-1.123h-1.112a.185.185 0 0 1-.278.16l-.556.963Zm1.946-3.256c0-.457-.24-.88-.633-1.114l-.569.955c.056.033.09.094.09.16h1.112Zm12.404 10.913-.556-.963-.556.321v.642h1.112Zm-3.957 7.055-.556-.963.556.963Zm3.586-2.07-.555-.964.555.963Zm-7.902.006-.556.963.556-.963Zm3.575 2.064.555-.963-.555.963Zm-7.891 0-.556-.963.556.963Zm3.575-2.064.555.963-.555-.963Zm-7.903-.007.556-.963-.556.963Zm3.587 2.071.556-.963-.556.963Zm-3.958-7.055h1.112v-.642l-.556-.32-.556.962Zm-3.957-2.285-.556.963.556-.963Zm3.957-7.71.556.963.556-.32v-.643h-1.112Zm-3.957 2.285-.556-.963.556.963Zm12.231-7.276-.556.963.556-.963ZM259.456.398l-.556.963.556-.963Zm7.883-.005.555.963-.555-.963Zm-3.575 2.064-.556-.963.556.963Zm7.902.007.556-.963-.556.963ZM268.08.394l.556-.964-.556.963Zm3.957 7.054h-1.112v.642l.556.321.556-.963Zm3.957 2.285.556-.963-.556.963Zm0 5.425-.556-.963.556.963ZM258.702.406l-.574-.952.574.952Zm-1.693 1.023.538.973.019-.01.018-.012-.575-.951Zm-1.877 1.037.538.973-.538-.973Zm18.017 19.32v-4.343h-2.224v4.342h2.224Zm-4.513 3.675 3.586-2.07-1.111-1.927-3.587 2.071 1.112 1.926Zm-5.428-2.064 3.575 2.064 1.111-1.926-3.574-2.064-1.112 1.926Zm-3.204 2.064 3.574-2.064-1.111-1.926-3.575 2.064 1.112 1.926Zm-5.44-2.07 3.587 2.07 1.112-1.926-3.587-2.07-1.112 1.925Zm-.927-5.948v4.342h2.224v-4.342h-2.224Zm-3.401-1.322 3.957 2.285 1.112-1.926-3.957-2.285-1.112 1.926Zm-.926-5.746v4.141h2.223v-4.141h-2.223Zm4.883-3.89-3.957 2.285 1.112 1.926 3.957-2.285-1.112-1.926Zm-.556-3.37v4.333h2.224V3.115h-2.224Zm9.941-1.62-3.566-2.06-1.112 1.926 3.567 2.059 1.111-1.926Zm3.205-2.065-3.575 2.064 1.112 1.926 3.574-2.064-1.111-1.926Zm5.439 2.071-3.586-2.07-1.112 1.925 3.587 2.07 1.111-1.925Zm.927 5.947V3.106h-2.224v4.342h2.224Zm-1.668.963 3.957 2.285 1.112-1.926-3.957-2.285-1.112 1.926Zm3.772 1.964v4.141h2.224v-4.141h-2.224Zm.185 3.82-3.957 2.285 1.112 1.926 3.957-2.285-1.112-1.926ZM258.128-.546 256.434.477l1.15 1.903 1.693-1.023-1.149-1.903ZM256.471.456l-1.877 1.037 1.076 1.946 1.877-1.037-1.076-1.946Zm18.782 14.06c0-.132.071-.254.185-.32l1.112 1.925c.574-.33.927-.942.927-1.605h-2.224Zm.185-3.82a.372.372 0 0 1-.185-.321h2.224c0-.662-.353-1.274-.927-1.605l-1.112 1.926Zm-4.327-7.27a.37.37 0 0 1-.186-.32h2.224c0-.662-.353-1.274-.927-1.605l-1.111 1.926Zm-8.644-.006a1.853 1.853 0 0 0 1.853 0l-1.112-1.926a.37.37 0 0 1 .37 0l-1.111 1.926Zm-6.606-.305a.37.37 0 0 1-.191.324l-1.076-1.946c-.59.327-.957.948-.957 1.622h2.224Zm-4.328 7.26a.37.37 0 0 1-.185.32l-1.112-1.925a1.853 1.853 0 0 0-.926 1.605h2.223Zm-.185 3.82a.37.37 0 0 1 .185.321h-2.223c0 .662.353 1.274.926 1.605l1.112-1.926Zm7.544 9.34a.371.371 0 0 1 .371 0l-1.112 1.926a1.853 1.853 0 0 0 1.853 0l-1.112-1.926Zm5.428-2.064a1.853 1.853 0 0 0-1.853 0l1.111 1.926a.37.37 0 0 1-.37 0l1.112-1.926Zm3.574-20.115a.37.37 0 0 1-.37 0l1.112-1.926a1.853 1.853 0 0 0-1.853 0l1.111 1.926Zm-.37 22.18a.37.37 0 0 1 .37 0l-1.111 1.925a1.853 1.853 0 0 0 1.853 0l-1.112-1.926Zm-11.848-2.072a.37.37 0 0 1 .185.321h-2.224c0 .663.354 1.274.927 1.605l1.112-1.926Zm4.336-22.029a1.852 1.852 0 0 0-1.884.019l1.149 1.903a.37.37 0 0 1-.377.004l1.112-1.926Zm10.913 22.35a.37.37 0 0 1 .186-.32l1.111 1.925c.574-.33.927-.942.927-1.605h-2.224Z" fill="#fff" mask="url(#a)"/><circle cx="263.764" cy="12.039" r="2.224" fill="#E9503B"/></svg>