<svg fill="none" xmlns="http://www.w3.org/2000/svg" viewBox="0 0 1440 210"><path d="M0 77.195c10.734 14.033 19.76 29.37 30.99 43.015 13.295 16.157 29.828 31.897 46.62 44.377 35.931 26.7 79.387 38.864 123.346 43.423 39.946 4.142 74.9-5.049 111.126-21.303 18.411-8.262 34.869-19.785 52.287-29.811 19.492-11.221 38.384-23.128 57.064-35.665 30.25-20.301 60.419-43.584 96.792-51.386 24.362-5.226 59.141-9.3 81.092 4.628 25.925 16.45 50.323 34.11 77.884 48.12 44.192 22.463 89.546 43.13 136.86 58.124 34.761 11.016 71.385 19.194 107.987 18.989 29.213-.163 55.861-10.648 80.542-25.795 12.64-7.754 21.5-17.154 31.27-28.109 14.77-16.569 30.15-32.289 44.5-49.277 16.86-19.953 33.58-40.413 52.83-58.125 14.53-13.36 31.18-30.525 51.2-35.12 27.89-6.401 56.48 1.527 81.71 13.205 10.3 4.77 20.13 10.305 30.23 15.45 9.11 4.638 16.77 12.495 25.19 18.308 21.29 14.697 41.82 28.565 64.78 40.7 18.33 9.691 37.14 18.656 55.7 27.906" stroke="#fff" stroke-linecap="round"/></svg>