<svg fill="none" xmlns="http://www.w3.org/2000/svg" viewBox="0 0 213 272"><path d="M47.369-10.821C39.719-4.592 35.923.584 34.659 9.387c-1.662 11.584-2.233 23.142-3.93 34.739-1.53 10.46.256 19.074 2.016 28.997 1.72 9.704 3.133 19.04 5.98 28.464 1.94 6.423 2.45 13.107 4.666 19.485 2.863 8.241 5.658 16.508 8.592 24.725 6.747 18.9 17.727 35.737 34.358 48.846 9.178 7.235 20.461 12.18 30.624 18.361 9.232 5.616 18.843 10.701 28.311 16.036 11.124 6.268 22.939 9.436 36.146 11.923 5.139.967 14.475.434 19.876-.451 7.621-1.248 15.806-.129 23.401-2.768" stroke="#FFA903" stroke-width="60" stroke-linecap="round"/></svg>