<svg width="26" height="30" fill="none" xmlns="http://www.w3.org/2000/svg"><mask id="a" fill="#fff"><path d="M13.069 30 .636 22.789a1 1 0 0 1-.498-.865V8.076a1 1 0 0 1 .498-.865L6.603 3.75 12.567.291a1 1 0 0 1 1.004 0l11.93 6.92a1 1 0 0 1 .499.865v13.848a1 1 0 0 1-.498.865l-5.967 3.461L13.069 30Z"/></mask><path d="M19.278 18.428a.5.5 0 0 0 .513.858l-.513-.858Zm.757-8.57a.5.5 0 0 0-1 0h1ZM15.202 8a.5.5 0 0 0 0-1v1Zm-5.177-.813.354-.353-.354.353Zm.752.298.014.5-.014-.5Zm9.049 6.489-.355.352.355-.352ZM13.569 30V18.374h-1V30h1ZM13.2 17.39c-.535-.616-1.835-2.107-2.74-3.147l-.754.657c.905 1.04 2.205 2.531 2.74 3.147l.755-.657Zm-3.472-3.171a.703.703 0 0 1-.997 0l-.71.705c.667.67 1.75.67 2.416 0l-.709-.705Zm-.997 0a.716.716 0 0 1 0-1.01l-.71-.705a1.716 1.716 0 0 0 0 2.42l.71-.705Zm0-1.01a.703.703 0 0 1 .997 0l.709-.705a1.703 1.703 0 0 0-2.415 0l.709.706Zm.997 0a.716.716 0 0 1 0 1.01l.709.705a1.716 1.716 0 0 0 0-2.42l-.709.706Zm16.016 1.362-3.233 1.928.512.859 3.233-1.929-.512-.858Zm-3.233 1.928-3.233 1.929.513.858 3.232-1.928-.512-.859Zm.61.077-2.94-2.955-.71.705 2.942 2.955.709-.705Zm-3.086-3.308v-3.41h-1v3.41h1ZM6.249 4.103 9.67 7.54l.71-.706-3.422-3.437-.709.706Zm4.542 3.882C12.447 7.94 14.895 8 15.201 8V7c-.255 0-2.77-.06-4.438-.015l.027 1ZM9.67 7.54c.298.3.705.456 1.12.445l-.027-1a.521.521 0 0 1-.385-.15l-.709.705Zm3.898 10.834c0-.361-.13-.71-.369-.984l-.753.657c.079.09.122.206.122.327h1Zm6.611-4.753a.5.5 0 0 1-.145-.353h-1c0 .397.157.777.436 1.058l.71-.705ZM13.07 30l-.502.865a1 1 0 0 0 1.004 0L13.069 30ZM6.603 3.75l-.501-.865.501.865Zm18.899 3.461.501-.865-.501.865ZM13.57.291l.501-.865-.501.865Zm-1.004 0-.502-.865.502.865ZM.637 7.211l-.503-.865.502.865Zm0 15.578.5-.865-.5.865Zm12.934 6.346L1.138 21.924l-1.004 1.73 12.433 7.211 1.004-1.73ZM1.138 21.924V8.076h-2v13.848h2ZM13.069 1.156 25 8.076l1.003-1.73-11.93-6.92-1.004 1.73ZM25 21.924l-5.967 3.461 1.003 1.73 5.967-3.461L25 21.924Zm-5.967 3.461-6.466 3.75 1.004 1.73 6.465-3.75-1.003-1.73ZM25 8.076V15h2V8.076h-2ZM25 15v6.924h2V15h-2ZM1.138 8.076l5.967-3.461-1.003-1.73L.134 6.346l1.004 1.73Zm5.967-3.461 5.964-3.459-1.004-1.73-5.963 3.459 1.003 1.73Zm18.898 19.039a2 2 0 0 0 .997-1.73h-2l1.003 1.73ZM25 8.076h2a2 2 0 0 0-.997-1.73L25 8.076ZM14.072-.574a2 2 0 0 0-2.006 0l1.003 1.73 1.003-1.73ZM1.138 8.076.134 6.346a2 2 0 0 0-.996 1.73h2Zm0 13.848h-2a2 2 0 0 0 .996 1.73l1.004-1.73Z" fill="#fff" mask="url(#a)"/></svg>